<?xml version="1.0" encoding="UTF-8"?>
<svg version="1.1" viewBox="0 0 900 900" width="225" height="225" xmlns="http://www.w3.org/2000/svg">
<path transform="translate(231,219)" d="m0 0h13l29 3 22 5 19 7 19 9 16 10 12 9 13 11 8 7 15 15 9 11 10 12 13 18 6 8h22l4 3 4-2 12-17 10-13 11-14 12-13 15-15 14-11 12-9 18-11 19-9 24-8 20-4 22-2h13l30 3 23 5 26 8 22 9 19 9 22 12 17 10 6 5-3 1-16-7-23-9-25-8-19-5-28-5-16-2-15-1h-17l-20 2-19 4-18 6-16 8-11 7-11 9-13 13-12 16-12 20-7 15h94l14 1 10 9h3l2-8 2-2 164 1 11 9 9 9 3 7v135l-1 21-4 2h-96l-5-2-5-5h-2l-2 11-4 6-14 14-4 2-35 2-1 90-1 10-10 13-12 10-4 1h-38l-1-1-2-19-26-1-101-1-6-4-8-8h-5l-9 9-5 4-40 1-1 15-2 5h-40l-8-6-5-4v-2l-4-2-7-6-102-2-3-2-1-9-1-25 12-9 9-9 10-2v-2l-18-14-8-7-1-2-1-21-18-1-8-3-15-15-8-7-3-1-119-1-3-2v-35l7-8 12-12 5-3 22-1 3-1-14-11-18-13-12-9-1-2v-56l4-6 24-24h109l2 2 1 12 4-1 14-13h116l2 2v7l5-2 4-2 2-4 1-1 19-1-3-9-11-20-8-12-8-10-18-18-13-9-17-9-21-7-20-4-18-2h-25l-26 3-26 5-31 8-31 11-23 10-1-2 24-14 22-12 16-8 19-8 27-9 27-6z" fill="#42221C"/>
<path transform="translate(88,346)" d="m0 0h63v2h38l2 2h3l2 3 3 1v6l-8 6h-2l-2 7-7 14h-2v2h-2l-1 6-5 5-2 1-3 5-2 7v3l5 1 3-3 4 1h4l4 2 5-2 3-13-1-5 3-11 5-6 5-1v-2l4-1 2-4 3-2h3l-1 7-11 10-1 2v80l1 52 7 8 7 5 21 1 1-71h42l1 15v29h21l14-14 1-10 1-121 2 3v19l1 3 5 2 6-4 6-6 2 1-7 7v122h11l10 3 3 1 2 3-3 1v3l-3 2-8 1-2 9 3 1-1 2v1h2v-2h2v-2l4-4 2-3h2l1-3 8-7h2v-2l8-1 1-2-2-1h39l2 6 13 1 6 2v2l-62 1-8 7-5 5-7 8-1 3v40l1 64 7 8 4 3 17 1v-58h36v37l16-1 8-7 3-4h2l1-99 4-4 10-1 1 94 3 5 5 5 11 10v2h60v-71h-26v53h-23l-1-1v-81h50l-1-10-5-6 4 1v-2l2-1-2-4 2-1 3 1 2 2 4 1 1-3-2-2 11-8 2 1v2l7 2h12l8 1 3-1 3 1v-3l-3-1v-1l28-1 6-7 2-1 2-95 4 2 1 3 4 2 7 8 25 25 1 2 1 29v59l26-1 8-8 1-2 1-99v-30l1-21 8 2 5-1 1 4 2 106v3l4 2 17 17 3 1 73 1v-89l-33 1v66l-28-1-1-2 1-98 61-1-1-14-3-1-6-7-61-1-34-1-26-2v-2l-8-1-1-2-3-1v-2h-7l-2-2 2-1 49-1h96l5 3 16 16 2 1 1 3v135l-1 21-4 2h-96l-5-2-5-5h-2l-2 11-4 6-14 14-4 2-35 2-1 90-1 10-10 13-12 10-4 1h-38l-1-1-2-19-26-1-101-1-6-4-8-8h-5l-9 9-5 4-40 1-1 15-2 5h-40l-8-6-5-4v-2l-4-2-7-6-102-2-3-2-1-9-1-25 12-9 9-9 10-2v-2l-18-14-8-7-1-2-1-21-18-1-8-3-15-15-8-7-3-1-119-1-3-2v-35l7-8 12-12 5-3 22-1 3-1-14-11-18-13-12-9-1-2v-56l4-6z" fill="#3A1C12"/>
<path transform="translate(231,219)" d="m0 0h13l29 3 22 5 19 7 19 9 16 10 12 9 13 11 8 7 15 15 9 11 10 12 13 18 6 8h22l5 5-2 9-14 1-4 2-63 1h-21l-2 4-14 14-5 3-8 7-4 1-4-3-1-9-1 105-1 10-15 15h-21l-1-1v-44h-42v55l-1 16h-21l-10-8-5-6-1-52v-80l7-8 5-4 2-7-7 4-3 3h-2v2l-6 3-4 6-2 11 1 5-3 11-5 1-1 2-4-2h-4l-4-2-1 3-5 1-4-1 1-4 3-8 3-5 5-3 3-8h2v-2h2l2-6 5-9 2-6 6-4 2-2h1l1-6-4-1-1-3-4 1-1-3h-38v-2h-62v-1h109l2 2 1 12 4-1 14-13h116l2 2v7l5-2 4-2 2-4 1-1 19-1-3-9-11-20-8-12-8-10-18-18-13-9-17-9-21-7-20-4-18-2h-25l-26 3-26 5-31 8-31 11-23 10-1-2 24-14 22-12 16-8 19-8 27-9 27-6z" fill="#4C3233"/>
<path transform="translate(723,347)" d="m0 0h96l5 3 16 16 2 1 1 3v135l-1 21-4 2h-96l-5-2-5-5h-2l-2 11-4 6-14 14-4 2-15 1h-19l1-2 11-1 1-3 4 1 11-2 1-5h-8l-6 1-8-1-1 4-8-1-3 2-6-9-5-2-1-2-3-1v-3l-7-2-4-1v-2l-3-1 2 4 10 10 2 7 1 105-3 6-7 5h-18l-3-1v-58h-35v37l-5 1h-8l-5-1v-2h-2l-7-8-3-3v-105l-4-2-3-4 11-8 2 1v2l7 2h12l8 1 3-1 3 1v-3l-3-1v-1l28-1 6-7 2-1 2-95 4 2 1 3 4 2 7 8 25 25 1 2 1 29v59l26-1 8-8 1-2 1-99v-30l1-21 8 2 5-1 1 4 2 106v3l4 2 17 17 3 1 73 1v-89l-33 1v66l-28-1-1-2 1-98 61-1-1-14-3-1-6-7-61-1-34-1-26-2v-2l-8-1-1-2-3-1v-2h-7l-2-2 2-1z" fill="#392421"/>
<path transform="translate(88,346)" d="m0 0h63v2h38l2 2h3l2 3 3 1v6l-8 6h-2l-2 7-7 14h-2v2h-2l-1 6-5 5-2 1-3 5-2 7v3l5 1 3-3 4 1h4l4 2 5-2 3-13-1-5 3-11 5-6 5-1v-2l4-1 2-4 3-2h3l-1 7-11 10-1 2v80l1 54-3 1 2 10 3 4v5h-2v6l-7-6-14-13-3-1-119-1-3-2v-35l7-8 12-12 5-3 22-1 3-1-14-11-18-13-12-9-1-2v-56l4-6z" fill="#4C251E"/>
<path transform="translate(541,517)" d="m0 0 4 1 2 2 4 1v-2l6 3 1 107 4 2 5 5v2h2v2h18v-37h35v58h21l7-5 2-5-1-105-2-7-1-3-4-2v-2l-4-2-3-3 1-3 3 2v2h6l5 3v3l4 1 1 2 5 2 6 8 2-2h5 2 2v-2h10l4-1h8v4l-1 3-11 1-1 2-1-2h-2l-3 3-9 1-2 2-1 90-1 10-10 13-12 10-4 1h-38l-1-1-2-19-26-1-101-1-6-4-8-8h-5l-9 9-5 4-40 1-1 15-2 5h-40l-8-6-5-4v-2l-4-2-7-6-102-2-3-2-1-9-1-25 5-3 2 1 1 3 7 6v3l-9 1 8 5 4 1 1 7-1 3 7 5 10 1 5 1h16l2 1v-2l5-2 4 1 4-1h4l15-3 2-2 1-2h2l2-4h-59l-17-1v-1h62l16-1 8-9 3-3 1-36h1l1 5 1 2 1 18 1 4v10l-2 4h4l1 8v9l4-1v-104h1l1 39 1 64 7 8 4 3 17 1v-58h36v37l16-1 8-7 3-4h2l1-99 4-4 10-1 1 94 3 5 5 5 11 10v2h60v-71h-26v53h-23l-1-1v-81h50l-1-10-5-6 4 1v-2l2-1-2-4z" fill="#391C13"/>
<path transform="translate(709,375)" d="m0 0h1l1 55-1 94-7 8-3 3h-26l-1-59-1-29-7-8-25-25-7-8-2-1v44l-1 51-6 5-3 4h-28l-1-97-1-20h-4l-4 1-1 32-1 58-3 5-11 10-7 8-5 3h-92v-118l2-3v37h9l12-1 5 2 4-1 2-5 1-3 2-31 1-1h41l2 2 2 42 12-2 3 3 1 2 13-1 3-3 2-34 2-13 6-3h4l1 2 1 26 1 5 1 14 26-1 7 1v-22l10 2 9 2 3 2 4 9h-3l-2-2h-3l3 3v2l9 1 7-1 26 1 5-1h11v-34z" fill="#EBA665"/>
<path transform="translate(228,362)" d="m0 0h91v122l-1 10-15 15h-21l-1-1v-44h-42v55l-1 16h-21l-10-8-5-6-1-52v-80l7-8 8-7 10-11z" fill="#F9BB6A"/>
<path transform="translate(507,361)" d="m0 0h115l10 1 2 1 4 7 10 10 7 8 13 13 6 4v-43h16l10 1 9 9 1 3-1 12-1 34-18 2-25-1-11 1-4-2-4-6h5l1 3 2-1-4-8-4-2-11-1-6-3v22h-13l-20 1-1-1-1-14-1-5-1-28-9 3-2 13-2 34-4 4-13 1-2-5-8 1-4 1-3-3-2-40-1-1h-41l-2 31-4 8-6 2-3-2-18 1-3-1-1-7v-26l2-6 5-5 11-12 4-2 2-5z" fill="#FEFDEC"/>
<path transform="translate(654,219)" d="m0 0h13l30 3 23 5 26 8 22 9 19 9 22 12 17 10 6 5-3 1-16-7-23-9-25-8-19-5-28-5-16-2-15-1h-17l-20 2-19 4-18 6-16 8-11 7-11 9-13 13-12 16-12 20-7 15h94v1h-47l-1 2-1-1v1h-22v-1h-17l-3 1-58 1-6 2-1 4-2 3v4l3 2-1 1h-9l1-5 2-12 24-32 11-14 12-13 15-15 14-11 12-9 18-11 19-9 24-8 20-4z" fill="#938B96"/>
<path transform="translate(557,522)" d="m0 0h76l9 9 6 5 3 4 1 6 1 105-3 6-7 5h-18l-3-1v-58h-35v37l-5 1h-8l-5-1v-2h-2l-7-8-3-3z" fill="#FBF9F9"/>
<path transform="translate(97,362)" d="m0 0h86l-1 13-4 6-6 5-54 1v11l10 7 11 7 3 3h3l4-6 6-4 5 1-1 5-6 7-2 2 6 4 1 2 9 5 16 11 6 4 1 5-1 40-3 5-11 11-8 3h-4l-1 2v-2l-83-1-3-1 1-9 6-9 3-4h66v-14l-43-29-27-18-2-2-1-15v-22l2-7 13-13z" fill="#FED27C"/>
<path transform="translate(358,363)" d="m0 0h84v42l-14 14 12 6 2 2 7 3 1 1-1 26-2 12-9 7-8 1-7-4-2 4-5 2-1-1-2-40-43-1-1 40-4-1-1-2-4-1-8 3h-9l-3 1-1 4h-3l-1-8-1-33v-51l3-5 15-15h2l2-4z" fill="#FFECA1"/>
<path transform="translate(726,363)" d="m0 0h89l6 7 3 3 1 12-1 1h-61v99l26 1 2 1-1-23v-43l1-1h33l1 4-1 85h-73l-5-3-17-17-2-1-1-3-1-63v-36z" fill="#E49553"/>
<path transform="translate(373,522)" d="m0 0h74v106l-5 5-8 7h-16v-37h-36v58h-17l-8-7-4-5-1-64v-40l4-7 7-7h2l1-3z" fill="#FAF8F6"/>
<path transform="translate(723,347)" d="m0 0h96l5 3 16 16 2 1 1 3v135l-1 21-4 2h-96v-1l89-1 4-6 2-5-1-13-1-8-2-9-3-3h-2l-1 2-1-1v-8h-2v-55l-33 1v66l-28-1-1-2 1-98 61-1-1-14-3-1-6-7-61-1-34-1-26-2v-2l-8-1-1-2-3-1v-2h-7l-2-2 2-1z" fill="#44323A"/>
<path transform="translate(231,219)" d="m0 0h13l29 3 22 5 19 7 19 9 16 10 12 9 13 11 8 7 15 15 9 11 10 12 13 18 6 9-4-2-8-6-6-4-10-7-5-4-3-1-2-3-7-4-5-3v-2l-5-1-7-4-9-6-9-5-7-6-3-5-17-17-6-5-7-3-11-5h-4l1 7 3 2v2l-6-2-16-7-21-6-19-3-11-1h-25l-26 3-26 5-31 8-31 11-23 10-1-2 24-14 22-12 16-8 19-8 27-9 27-6z" fill="#948C97"/>
<path transform="translate(264,522)" d="m0 0h70l-1 11-6 7h-46l1 10 14 10 16 10 11 8 16 11v38l-7 8-5 5-16 1h-37l-26-1-1-1 1-7 6-8 4-3h50l2-1v-7l-6-7-27-18-25-17-1-1v-35z" fill="#F9F8F8"/>
<path transform="translate(656,344)" d="m0 0 164 1 11 9 9 9 1 4-7-6-12-12-3-1h-96l-49 1 4 1 3 1v2l4 1 8 3v2l36 1 24 1 61 1v1h-88l1 6-1 17h-1l-1-10-7 1-5-2-1 20h-1l-1-21-7-8-2-2-26-2v43l-4-2-8-7-14-14-14-16v-3l-12-1h-115l-19 1-2 4-8 7-7 8-5 5-2 4-1 19h-1l-1-19-1-1-10-1-2-2-4-1-1 17h-1v-40h-84v-1l21-1 64-1 3-2 13-1 2-7v-2h2l-1 11-2 5 9-1-3-2 1-5 3-6 6-3 60-1 4-1h22v1h13l3-1h61l10 9h3l2-8z" fill="#6C6D93"/>
<path transform="translate(463,523)" d="m0 0h73l6 7v10h-50l1 81 23 1v-53h26v71h-60l-13-13-6-7z" fill="#FBFBFB"/>
<path transform="translate(351,546)" d="m0 0h1l1 39 1 64 7 8 4 3 17 1v-58h36v37l16-1 8-7 3-4h2v-14l2 1 1 8h6l2 4h2v3h2l2 5 3 1 4 9v3h2l2 8-2 1-8-7-4-4h-5l-9 9-5 4-40 1-1 15-2 5h-40l-8-6-5-4v-2l-4-2-7-6-102-2-3-2-1-9-1-25 5-3 2 1 1 3 7 6v3l-9 1 8 5 4 1 1 7-1 3 7 5 10 1 5 1h16l2 1v-2l5-2 4 1 4-1h4l15-3 2-2 1-2h2l2-4h-59l-17-1v-1h62l16-1 8-9 3-3 1-36h1l1 5 1 2 1 18 1 4v10l-2 4h4l1 8v9l4-1z" fill="#3A1D14"/>
<path transform="translate(334,387)" d="m0 0 1 2v51l1 41 3-1 1-3 4-2h8l9-3 4 2v2l4 1v-37l1-3h43l1 1 2 40 5-2 2-4 7 4 8-1 8-6 2-12 1-21h1v47l-7 8-14 14-3 4h-92l-1-29v-92z" fill="#E59451"/>
<path transform="translate(711,374)" d="m0 0 8 2 5-1 1 4 2 106v3l4 2 17 17 3 1 73 1v-34h2l1 8 4-2 3 4 3 12v10l1 9-5 8-1 1 2 2h-95l-7-6h-2l-2 11-4 6-12 12-1-3 4-5-1-2-10 2-4-2 1-4 4-1 3-9 1-2 1-99v-30z" fill="#392320"/>
<path transform="translate(726,363)" d="m0 0h89l6 7 3 3 1 12-1 1h-62v65l-1 12-7-1-9-5-5 1-1 2-5 1v2l-6 3-1-11-1-52z" fill="#FED28B"/>
<path transform="translate(226,363)" d="m0 0h91v32l-1 24-3 2-5 1h-11l-12-2-2-2v-32h-2v-2l-43 1-2 8v32l-9 2h-12l-5 2h-6l-1-1v-40l16-17z" fill="#FFF7A4"/>
<path transform="translate(319,363)" d="m0 0 2 3v19l1 3 5 2 6-4 6-6 2 1-7 7v122h11l10 3 3 1 2 3-3 1v3l-3 2-9 1v-2l-5-2v-3l-23-3-23 1-15-1-5-3-7 1-10 6-4 1v2l-5 5h-3v2l-5 1 1 5-4 4-1-1-19-1v-1h21l1-71h42l1 15v29h21l14-14 1-10z" fill="#38221F"/>
<path transform="translate(709,375)" d="m0 0h1l1 55-1 94-7 8-3 3h-26l-1-59-1-29-7-8-25-25-7-8-1-2 7 1 9 2 3 2 4 9h-3l-2-2h-3l3 3v2l9 1 7-1 26 1 5-1h11v-34z" fill="#F3B06A"/>
<path transform="translate(96,363)" d="m0 0h86l-1 5-3 11-5 5h-57v16l11 9 3 1v2l4 2 4 3 6 2 10 7 7 7 10 6-4 1-6-2v-2l-4-1-12-4-21-3-5 1-1 11-7 1-7-1-22-15-2-2-1-15v-22l2-7 13-13z" fill="#FEF48E"/>
<path transform="translate(501,385)" d="m0 0h41l2 2v100l-43-1-1-100z" fill="#49384B"/>
<path transform="translate(83,430)" d="m0 0 4 2 13 7 3 1 4 1 44 29 2 2v14l-3 1h-64l-7 10-2 5-1 6 5 1 78 1v3l-1 4h4v-2h2v-3l10-4h2l-2 4h-4l-1 8 1 3 1-4 1-3 5 3 4 1 2 4 5-1 3-8 4-9 2 3 2 9v14l-1 2-1 4-3-5-1-2-2 1-3-3-128-1-3-2v-35l8-7 5-1 2-5 2 1 1 5 4-3 1-4 2-1-1-5 23-1 8 1 2 2 14 5h12v-2h2l1-3v5h2l1-6h-3v-2h-2v-2l-7-2-6-4-9-4-4-2v-2l-5-2-6-4-3-3-6 1-1 2-4-1-3-7-3-2-1-3-2-2z" fill="#381B11"/>
<path transform="translate(536,264)" d="m0 0 2 1 1 1 1 4 16 8-5 9-9 12-3 5-2 7h11l-6 11-11 22h94v1h-47l-1 2-1-1v1h-22v-1h-17l-3 1-58 1-6 2-1 4-2 3v4l3 2-1 1h-9l1-5 2-12 24-32 11-14 12-13 15-15z" fill="#B0ACB2"/>
<path transform="translate(541,517)" d="m0 0 4 1 2 2 4 1v-2l6 3v105h-1l-1-75-3 2-2 11-1 4 1 4-1 8-1 18 2 13 2 7-1 6-1 2h-2l1 9-1 5h2l1 5-4 4-1-2 1-2-2-2-1-2-58-1v-1h56v-71h-26v53h-23l-1-1v-81h50l-1-10-5-6 4 1v-2l2-1-2-4z" fill="#3A1D14"/>
<path transform="translate(674,362)" d="m0 0h16l10 1 9 9 1 3-1 12-1 34-18 2-25-1-11 1-4-2-4-6h5l1 3 2-1-4-8-4-2-11-1-6-3v22h-13l-20 1-1-1-1-14-1-5v-16l2 3v7l5-1 4-7 2-1h12l12 2 4 2 8-1 1-1h6l8 4 5 4h6l6 4z" fill="#FEEAB5"/>
<path transform="translate(228,362)" d="m0 0h91v122l-1 10-15 15h-21l-1-1v-44h-42v55l-1 16h-21l-10-8-5-6-1-52v-80l7-8 2 1-7 8v72l1 23h3v-3h2v-3l7-4h12l2 1v2l4-1 3-13 3-2h42l1 7 1 14 3-1 1-4h2l1-3 5-2h16l4 1 2-111h-90z" fill="#DF9355"/>
<path transform="translate(507,361)" d="m0 0h115l10 1 2 1 4 7 10 10 7 8 12 12v2h-5l-8-6-5-2h-6l-5 2-6-1-6-2-10-1h-10l-3 3-3 5-3 1-2-1-2-10-1-12-9 3-2 13-2-4v-8l-13-3-18 2-13-1-16-2-13-4-12-1-8-6 2-5z" fill="#FEFEF8"/>
<path transform="translate(588,378)" d="m0 0h4l1 2 1 26 1 5 1 14 26-1 7 1v-22h3l-2 97-6 5-3 4h-28l-1-97-1-20h-4l-4 1-1 32h-1l-1-18v-13l2-13z" fill="#E49451"/>
<path transform="translate(300,251)" d="m0 0 6 1 12 6 5 2 13 12 12 12v3l4 2 9 7 11 6 5 4 8 3v2l5 2 9 6v2l4 1 10 7 8 6 6 4 6 5h24l4 4h-43l-59-1h-9-3l2-2 19-1-3-9-11-20-8-12-8-10-18-18-13-9-3-2v-3l-4-2-1-7z" fill="#938B96"/>
<path transform="translate(656,344)" d="m0 0 164 1 11 9 9 9 1 4-7-6-12-12-3-1h-96l-49 1 4 1 3 1v2l4 1 8 3v2l36 1 24 1 61 1v1h-88l1 6-1 17h-1l-1-10-7 1-5-2-1 20h-1l-1-21-7-8-2-2-26-2v43l-4-2-8-7-14-14-14-16v-3l-12-1h-115l-19 1-2 4-8 6 1-4-5-5h-2l-1-3 12-1 58-2 8-1h13l18-1 7 2 62 3-6-9-3-5 4 2 5 5h3l2-8z" fill="#A9A2A6"/>
<path transform="translate(219,345)" d="m0 0h116l2 2v7l5-2 4-2v-2l4-2h22l89 2 1 2-2 8-14 1-4 2-63 1h-21l-2 4-14 14-5 3-8 7-4 1-4-3-1-9v-13l-1-3-50-1v-1l47-1 4 1-1-6-1-4h-2v-2l-34-1-4-1-59-1z" fill="#51405E"/>
<path transform="translate(457,524)" d="m0 0h5l1 94 3 5 5 5 11 10v2l63 1 1 3 2 2-1 7h-4v2l-5 2h-64l-1-9h-2l-5-12-4-4v-2h-2v-3h-2l-2-3-6-1-2-8v-86l4-4z" fill="#40160B"/>
<path transform="translate(188,446)" d="m0 0 2 2-1 43-3 5-11 11-8 3h-4l-1 2v-2l-83-1-3-1 1-9 6-9 3-4h66v-14l-7-5 2-1 8 6 1 9 4 2 8-2 6-1 4-1 6 1 2-1z" fill="#E59552"/>
<path transform="translate(358,363)" d="m0 0h84v13l-1 27h-4v3l-5 1-2-1-14-1-6-4-3-17h-9l-23-3-4-1-3 9-6 2h-8l-6-3-3-7 1-4 7-8z" fill="#FEF6BD"/>
<path transform="translate(579,237)" d="m0 0 6 1 8 1 4 2 3 1h7l5-1 14 1 1 4-3 2v4l-20 8-14 8-14 11-14 14-12 16-1 2-9 1-3-1 1-7 8-12 9-13-4-3-12-6-1-3-2-1 5-6 18-12 14-8z" fill="#948C96"/>
<path transform="translate(723,347)" d="m0 0h96l5 3 16 16 2 1 1 3v135h-1v-122h-4v-2l-5-1-1-3h-5l-4-4v-2l-3-1-6-7-61-1-34-1-26-2v-2l-8-1-1-2-3-1v-2h-7l-2-2 2-1z" fill="#49394C"/>
<path transform="translate(637,524)" d="m0 0 4 2v2h6l5 3v3l4 1 1 2 5 2 6 8 2-2h5 2 2v-2h10l4-1h8v4l-1 3-11 1-1 2-1-2h-2l-3 3-9 1-2 2-1 90-1 10-8 11-2-3h2l2-5h-4l-2-9-1-4h-2l1 4-3 7-4 4-6 3-6-1v-1l9-2 5-4 2-5-1-105-2-7-1-3-4-2v-2l-4-2-3-3z" fill="#3D2018"/>
<path transform="translate(463,428)" d="m0 0h1l1 49 1 10 5-5 12 1 8 1 4-1 3 3 1 4 2 1h39l7-2 5-2h3l1-3 11-3 4-1 3 3 2 4 2-2 2-14h1v12l-3 5-11 10-7 8-5 3h-92z" fill="#E49451"/>
<path transform="translate(319,363)" d="m0 0 2 3v19l1 3 5 2 6-4 6-6 2 1-7 7v122h11l10 3 3 1 2 3-3 1v3l-3 2-9 1v-2l-5-2v-3l-23-3h-18l3-4h-21l1-2h21l14-14 1-10z" fill="#38221F"/>
<path transform="translate(244,220)" d="m0 0h10l19 2 22 5 19 7 19 9 16 10 12 9 13 11 8 7 15 15 9 11 10 12-1 2-10-10-9-7-14-8-12-7-13-8-6-2v-2l-5-2-5-1-3-3-2-1v-2l-4-1-4-4-13-9-19-11-15-7-9-4-10-5-14-3z" fill="#FDFDFD"/>
<path transform="translate(240,387)" d="m0 0h40l1 1v52h-42v-51z" fill="#3E2A2A"/>
<path transform="translate(709,391)" d="m0 0h1l1 39-1 94-7 8-3 3h-26l-1-59-1-31 2 1 1 3 1 32 7-2 5-2h14l4 1 2-3z" fill="#E59552"/>
<path transform="translate(317,363)" d="m0 0h1v56l-1 25-1 11h-8l-4-1-9 3h-12l-10-2-5-3-6-1v-2l-12 1-7 3-2 1v-2h-3v-4h-2l-1-2-5 2-5 4-5 2h-10l-6 7h-1v-14l9-1 9-5 9-2v2l7-1h45v-52h1l1 30 4 2 11 1h9l7-2z" fill="#FCC777"/>
<path transform="translate(824,475)" d="m0 0h2l1 8 4-2 3 4 3 12v10l1 9-5 8-1 1 2 2h-95l-3-3 3-2 4-2-1-4-5-5-1-6 4 1-2-4-3-3v-2l-4-2v-3l-3-1-1-3 4 2 17 17 3 1 73 1z" fill="#40201A"/>
<path transform="translate(631,405)" d="m0 0 4 2 1 3 4 2 7 8 18 18v4l4 2 2 2v31l1 14-3-3-1-20-6 1v2l-12 7-1 1-10 1-5-6v-3h-2l-1 28h-1v-50z" fill="#44333B"/>
<path transform="translate(371,438)" d="m0 0h41l1 1v48l-42-1-1-1v-27z" fill="#3E2A2C"/>
<path transform="translate(726,363)" d="m0 0h89l6 7 2 1v6l-3 1-7-2h-13l-4 2-4 4-26 1-6 2-16 6-10 1 1 7-1 2-5 1z" fill="#FEF6BD"/>
<path transform="translate(501,385)" d="m0 0h41l2 2-1 18-1 15-3 7-5 5-25 1-3-2v-2h-3l-1 4-1-9-1-25v-13z" fill="#503F5D"/>
<path transform="translate(80,381)" d="m0 0 2 4 1 1 10 2 10 3 3 4 1 8 11 8 19 10 12 6 7 3 12 7 3 3-6-1-4-1v-2l-4-1-12-4-21-3-5 1-1 11-7 1-7-1-22-15-2-2-1-15v-22z" fill="#FEE282"/>
<path transform="translate(665,468)" d="m0 0h3l1 3 1 25v10l-1 9h-1l-1-9-3-1-1 4-4 4h-8l-2 4-16-1h-9l-3-2-26 2-6 1-20-1-17 2-2-2 11-8 2 1v2l7 2h12l8 1 3-1 3 1v-3l-3-1v-1l28-1 6-7 3-2 1-23 1-5h2l3 5 2 4 10-2 11-7h2v-2z" fill="#3D292A"/>
<path transform="translate(335,415)" d="m0 0 2 3 14 3 10 1 2-4h5v2h2v2l7-1 5 1 6-2 16 1h7l3 2h11l5 5 8 3 4 3 6 2v5h-8l-10 4-6 3-5-2-3-8-2-1h-45l-1 7-7-1-2-2-10 1-1-1h-10l-3-2z" fill="#FED28C"/>
<path transform="translate(536,264)" d="m0 0 2 1 1 1 1 4 16 8-5 9-9 12-11 18-4 5-7-2v-2l-5-1-7-3-11-2-4 1-5 4-2-1 13-16 11-12 15-15z" fill="#FDFDFD"/>
<path transform="translate(824,375)" d="m0 0 8 1 1 4 5 1v2h4v28l-3-2-3-6v-2l-11 2-7 2-24 6-8 3h-3v2l-5 3-5-1v-2l-3-1-4-15-2-1v-11h58l3-2-1-4z" fill="#49384A"/>
<path transform="translate(590,390)" d="m0 0 2 2 1 20 1 98 2 1v3l-9 1-7-1h-10l-7-3-1-4 6-7 5-5 3-4h2l2-8 1-58 1-32z" fill="#462D2A"/>
<path transform="translate(654,219)" d="m0 0h13v1h-9v2h-2v3l6 1 1 5 3 1 1 5 13 1 12 1 7 3 3-1v2l10 1v2l-25-2h-17l-20 2-19 4-6 1v-2l-2-1 3-2v-4h-14l-5 1h-7l-6-2-5-2h-9l1-3 21-8 19-5 11-2z" fill="#B3AFB5"/>
<path transform="translate(247,225)" d="m0 0 8 1v2h2v2l7 2 9 3 4 2 9 2 5 2v2l9 3 13 7 7 5-2 1-14-7h-4l1 7 3 2v2l-6-2-16-7-21-6-19-3-11-1h-25l-26 3-21 4-4-1 4-4 18-4 10-3 1-1 11-2 14-3 14-2 21-1 2-1-3-3z" fill="#A2A3AD"/>
<path transform="translate(197,407)" d="m0 0h1l1 33 1 7 1 19 1 3 1 54-3 1 2 10 3 4v5h-2v6l-7-6-14-13-3-2h9l6 3 3 6 1-11v-8l-2-9-1-2-5 13-2 4h-5l-4-4-6-2-1 1-1 4-2 1-1-8 2-4 5-2 1-2-10 4h-2v3h-2v2h-4l1-6-78-1v-1h79l3 1 10-3 8-7 6-6 1-3 1-40 5-10 1-22z" fill="#44221B"/>
<path transform="translate(587,540)" d="m0 0h35v45h-35z" fill="#381B12"/>
<path transform="translate(544,406)" d="m0 0h1l1 23 12-2 3 3 1 2 13-1 3-3 2-21h1v29l-1 33-3 3h-30l-2-1-1-19z" fill="#F9BC76"/>
<path transform="translate(231,219)" d="m0 0h13v2l11 2 8 3 18 8 19 9 20 12 12 9 1 2 3 1v2l5 2 10 5v2l7 2 12 7 16 9 13 8 4 3v2l4 2 13 13 11 15 4 6-4-2-8-6-6-4-10-7-5-4-3-1-2-3-7-4-5-3v-2l-5-1-7-4-9-6-9-5-7-6-3-5-17-17-12-9-14-8-11-5v-2l-5-1-11-3-10-3-8-4v-2h-2v-2h-10l-9-2z" fill="#B0ACB2"/>
<path transform="translate(384,540)" d="m0 0h34v44h-35v-43z" fill="#381B11"/>
<path transform="translate(208,381)" d="m0 0 2 1-7 8v72l1 23h3v-3h2v-3l7-4h12l2 1v2l4-1 2-9h1v33l-3 9-2 1-10-2-6 3h-2l-1 6 5 13v2l-6-2-8-7-2-3-1-52v-80z" fill="#E49451"/>
<path transform="translate(226,363)" d="m0 0 3 1-12 13 3 3v2l4 2 1 2-1 2h2v2l9-1 2-1-1 5v32l-9 2h-12l-5 2h-6l-1-1v-40l16-17z" fill="#FFF58E"/>
<path transform="translate(791,421)" d="m0 0h32v19l-2 21-5 5-8-1-8 1-2-1-1 7-4 5-1-3-1-25z" fill="#F3B06A"/>
<path transform="translate(656,344)" d="m0 0 164 1 11 9 9 9 1 4-7-6-12-12-3-1h-96l-49 1 4 1 3 1v2l4 1 8 3v2l36 1 24 1 61 1v1h-88l1 6-1 17h-1l-1-10-7 1-5-2-1 20h-1l-1-21-7-8-4-3-3-1-39-1-5-2v-3h2v-8z" fill="#585B8D"/>
<path transform="translate(711,374)" d="m0 0 8 2 5-1 1 4 1 57v12l-1 30 1 10-4-1-2-18-1-5 1-3-4-1-4-5-1 33h-1v-93z" fill="#463238"/>
<path transform="translate(823,373)" d="m0 0h1l1 12-1 1h-63v30l-7-1-6 2-4 4-5 1-10-1-1-1-1-18v-22h1l1 12v10l5-1-1-9 5-1 12-3 10-4 6-2 26-1 3-1 2-4 3-1h13l9 2z" fill="#FEEAB3"/>
<path transform="translate(212,370)" d="m0 0h3l-1 7-11 10-1 2-1 77h-1l-1-21-1-5-1-25-1 10-1 16-4 8-8-6-18-12-8-5v-2l-4-1v-2h3v-2l5-4 4 2 5-1 1-2 4 1h4l4 2 5-2 3-13-1-5 3-11 5-6 5-1v-2l4-1 2-4z" fill="#462D2A"/>
<path transform="translate(467,624)" d="m0 0 5 5 10 9v2l63 1 1 3 2 2-1 7h-4v2l-5 2h-64l-1-9h-2l-5-12-4-4v-2h-2v-2l7-2z" fill="#41170C"/>
<path transform="translate(471,381)" d="m0 0 5 1 5 5 18 4 1 1v11l-1 14-4 8-6 2-3-2-18 1-3-1-1-7v-26l2-6z" fill="#FFE5AE"/>
<path transform="translate(629,403)" d="m0 0 3 1h-2v24l-1 33-7-2-5-1-2 1h-9l-5 10-6 3-1-2v-59h1l1 14 26-1 7 1z" fill="#FCC986"/>
<path transform="translate(118,448)" d="m0 0h5v3l6 1 2 1h11l1-1 8-1 3-2 8 1 15 2v2l8 2 3-4-1 27-4 2-7-1-4 2-14 2-3-3-1-9-7-5-7-3-22-15z" fill="#F8B969"/>
<path transform="translate(334,389)" d="m0 0h1l1 50 6 1h6l3 1 8-1 4 3 5 1 1-7 1 3-1 37-4-1-1-2-4-1-8 3h-9l-3 1-1 4h-3l-1-8-1-33z" fill="#F2AF69"/>
<path transform="translate(709,375)" d="m0 0h1v16l-1 41-1 9-14 1-2-1-17 3-4-1-5-5-5-3-21-21-7-8-1-2 7 1 9 2 3 2 4 9h-3l-2-2h-3l3 3v2l9 1 7-1 26 1 5-1h11v-34z" fill="#FED28D"/>
<path transform="translate(723,347)" d="m0 0h41v1h-21v2h19l9 2 8 5v2l8-1 5 1 17 1-2 2h-54l-34-1-26-2v-2l-8-1-1-2-3-1v-2h-7l-2-2 2-1z" fill="#52415F"/>
<path transform="translate(674,362)" d="m0 0h16l10 1 9 9 1 3-2 19-2 3-11 2-9 2-9-1-1-1-2-17z" fill="#FFF6BD"/>
<path transform="translate(183,364)" d="m0 0 2 2 1 5h-2l-1 7-6 7-2 3-10 6-12 1-12 3-3 2h3l1 2 2-2 8-2 3-3h7l5-1v2l4 2-3 3-3 5-2 7-5 6h-2v2l-4 1-3-3 4-1 2-4 4-5v-3l-6 1-5 4-3 5-4-1-11-8-11-7-2-2v-11l1-1 54-1 7-6 2-4z" fill="#4C251D"/>
<path transform="translate(461,348)" d="m0 0h2l-1 11-2 5 9-1-3-2 1-5 3-6 5-2-1 3h-2l-2 5-2 4h15v1l-11 1 7 5 1 3-4 6-5 6-5 5-2 4-1 19h-1l-1-19-1-1-10-1-2-2-4-1-1 17h-1v-40h-84v-1l21-1 64-1 3-2 13-1 2-7z" fill="#8B8CA6"/>
<path transform="translate(446,429)" d="m0 0 4 2-1 26-2 12-9 7-8 1-7-4-2 4-5 2-1-1-2-40-42-1v-1h43l3 2 3 8 4 1 8-4 8-3 8 1-2-6h3v-3h-2z" fill="#F2AF69"/>
<path transform="translate(464,388)" d="m0 0 1 4v33h9l12-1 5 2 4-1 2-5 2-3v36l-3 3h-26l-5 3-1-4-1-27v-37z" fill="#FCC986"/>
<path transform="translate(444,386)" d="m0 0 5 1 1 1 10 1 2 2v41l-1 13-3 4h-3l-5-16-4-4-5-2-6-4-7-4 2-4 8-7 4-5 1-15z" fill="#503D4C"/>
<path transform="translate(576,246)" d="m0 0 10 3v3l10 1 2 5-3 7-13 9-12 11-8 8-12 16-1 2-9 1-3-1 1-7 6-9 3-1 6-9 2-1 3-6 7-6 3-4h2l2-4 3-4h2l-1-3-7-3 2-6z" fill="#635170"/>
<path transform="translate(544,394)" d="m0 0h1l1 8 18-5h10l6 4v15l-1 12-4 4-13 1-2-5-8 1-4 1-3-3-1-21z" fill="#FFE29E"/>
<path transform="translate(674,382)" d="m0 0h1l2 17 9 1 9-2 11-2 2-2v27l-18 2-25-1-11 1-4-2-4-6h5l1 3 2-1-1-5 4 2h3l2-5 4-2 7 1-1-3h2z" fill="#FEEAB4"/>
<path transform="translate(243,626)" d="m0 0 6 3-1 10 1 1 17 1h60l-3 5h-2l1 4-13 3-9 2-3-1h-3l-3-1-1 2h-4v2h-22l-1-1-10-1-8-6 1-8-1-2-5-1-7-5v-1h10l-1-4z" fill="#38130A"/>
<path transform="translate(98,443)" d="m0 0 6 3v2l5 2 6 4v2l4 1 10 5 5 3 7 3v2h2v2h3v6l-2 2-3-1 1-3h-2v2l-2 1h-11l-13-5-2-1v-2h-16l-14 1 1 5h-3l-1 5-4 3-2-4-1-3-1 4-8 5-5 4 2-4 16-16 5-3 22-1 3-1-14-11-4-3 2-5 3-3 1 1h3z" fill="#43271F"/>
<path transform="translate(542,405)" d="m0 0h1l1 82-43-1v-62h1l1 30 3 2v6l-4 1v7h39l1-4-4-1-13-2-6-1-1-3 6-5h6l6-3 4-5 1-3z" fill="#452F35"/>
<path transform="translate(245,391)" d="m0 0h25l4 3 1 7-2 4-1 18-4 2-7 1-6 5-7-2-4-2v-17l-2-3-1-11 1-3z" fill="#44323A"/>
<path transform="translate(371,438)" d="m0 0h24v1l14 1 2 4v15l-2-4-3 3-4 11-2 3h-16l-4-2-4-16h-2l-2-6h-1z" fill="#442E35"/>
<path transform="translate(319,363)" d="m0 0 2 3v19l1 3 5 2 6-4 6-6 2 1-7 7-1 38-2 7-1 14 1 13v14h-1l-4-17h-2v6l-2 5-1 14h-1l-1-10z" fill="#4B3031"/>
<path transform="translate(826,427)" d="m0 0h2l3 12 4 8 2 2 2 9 3 3v65l-4 2h-96v-1l89-1 4-6 2-5-1-13-1-8-2-9-3-3h-2l-1 2-1-1-1-13z" fill="#3D292A"/>
<path transform="translate(364,304)" d="m0 0 5 3 7 3 13 8 7 4 9 6v2l4 2 9 5 3 5 2 2-4 1h-27l-9-3-12-20-2-2-3-7-4-6z" fill="#79798E"/>
<path transform="translate(247,348)" d="m0 0h60l9 1v2h2l3 6-1 4h-68l-10-1-3-2v-2l-3-1 3-2 6-1z" fill="#432E36"/>
<path transform="translate(372,386)" d="m0 0h31l2 1v27h-34l-1-1 1-26z" fill="#4A384B"/>
<path transform="translate(631,405)" d="m0 0 4 2 1 3 4 2 2 5 6 6v2l4 2 8 9 2 1 3 9 1 5h-3l-2 2v-2h-2l-2-3-1 5-9 6-7 1 1-4 8-5-3 1h-3l-5-5-5-7-2 1z" fill="#48374A"/>
<path transform="translate(789,420)" d="m0 0h1l1 46v21l-28-1-1-2 1-52h1l1 11 5 12v2l3 1 1 4 4-1 3-6 3-1 1 9v6h2l1-8-1-25 1-14z" fill="#3D2A2A"/>
<path transform="translate(238,384)" d="m0 0h43v2h2l-1 54h-1l-1-52-40-1-1 53h-2l-1 2v-2l-6 1-1-1-11 3-6 4h-9v-19h7l5-2h12l9-1-1-32z" fill="#FDD07A"/>
<path transform="translate(725,386)" d="m0 0h1l1 17 1 52 1 10 2-2h3v-2l6-3h2l1-2 4 1 8 4 6 2 1-77h1v85l-2 12-4-2-3-7-5-1-5 3-7-1v8l-2 7-4 1-4-3-1-3-1-63z" fill="#ECA55F"/>
<path transform="translate(630,377)" d="m0 0 8 1 10 6 4 1 15 15v2h-5l-8-6-5-2h-6l-5 2-6-1-6-2-10-1h-10l-3 3-3 5-3 1-2-1-1-7v-15h1v5l6-1 5-3 9-1 10 1z" fill="#FEFDEC"/>
<path transform="translate(665,439)" d="m0 0 7 6 1 2 1 29v59l26-1 7-6-1 5-1 2-4 2v3l6 1 3-2h5l1 4-4 4-2 5-4 2-15 1h-19l1-2 11-1 1-3 4 1 11-2 1-5h-8l-6 1-8-1-1 4-8-1-3 2-2-5 11-1 2-5h-7l-3-7 1-34 1-9 1-1-1-9v-31l-5-4z" fill="#43241E"/>
<path transform="translate(239,462)" d="m0 0h43l1 7v16l-1 23h-1v-44h-42v55l-1 16h-21l-4-4 5 2-5-11-1-7 4-4 6-3 11 2 3-9 1-37z" fill="#DC8944"/>
<path transform="translate(300,251)" d="m0 0 6 1 12 6 5 2 13 12 12 12 2 5 7 10 2 5-6-2-2-1v2h-5l-8-10-18-18-13-9-3-2v-3l-4-2-1-7z" fill="#544252"/>
<path transform="translate(555,541)" d="m0 0h1v86h2v2l4 2 6 7-2 4h-2l-2 4h-2l-6 3h-2v2l-4-1 2-6v-3h-2v-14h2l1-8-4-17v-11l1-14 1-7-1-3 2-9 3-7h1z" fill="#38140B"/>
<path transform="translate(317,363)" d="m0 0h1v56l-2 19-3 3-11 1-1 1-14 2-4-5v-22l5 2 11 1h9l7-2z" fill="#FDD07C"/>
<path transform="translate(281,385)" d="m0 0 6 1 2 3-1 4-2 1-1 5 8-1h13l7 1 3-3v23l-3 2-5 1h-11l-12-2-2-2v-32z" fill="#FFECA1"/>
<path transform="translate(824,475)" d="m0 0h2v36h-68l-15-2 4 5v3l4-1 4 2 1 4 10 1h9l14-1h17l1 1h16l8-1 1 3 2 2h-95l-3-3 3-2 4-2-1-4-5-5-1-6 4 1-2-4-3-3v-2l-4-2v-3l-3-1-1-3 4 2 17 17 3 1 73 1z" fill="#42241C"/>
<path transform="translate(95,346)" d="m0 0h56v2h38l2 2h3l2 3 3 1v6l-8 6h-2l-2 7-7 14h-2v2h-2l-1 6-2 3-4-1-3-2-4 1h-8l-4 4-6 1-2 2-1-3-5 1 1-2 6-3 16-3h6l6-4 4-2 6-8 2-3 2-6-2-8h-18v-1h8v-2l6-2v-2l-13-2-16-1-8-1-5-1-7-1-5-1-30-1z" fill="#472D2B"/>
<path transform="translate(544,406)" d="m0 0h1l1 23 12-2 3 3 1 2 13-1 3-3 2-21h1v29l-1 13-4 2h-16l-1-6-7 1-2 1-2-1v3h-2l-1 2-1-23z" fill="#FCC783"/>
<path transform="translate(481,327)" d="m0 0h8v2l7 2 3 2v3l3 1 4 6 2 2 21 1v1l-53 1-6 2-1 4-2 3v4l3 2-1 1h-9l1-5 2-12 12-16 3-2h3z" fill="#A3A3AD"/>
<path transform="translate(630,404)" d="m0 0 2 1-1 44-2 35-1-2-3-1-2-3-14 1-4-1-3 1-3 4-4 1-1-3v-11h3l3-1 5-10 1-1h10l5-1 8 4v-33z" fill="#ECAB6A"/>
<path transform="translate(358,363)" d="m0 0h84l-1 12-1 1h-8l-9-4-13-1h-19l-8 2-13-2-10-2-3-3z" fill="#FEFDE1"/>
<path transform="translate(229,363)" d="m0 0h88l-1 13-7-1-10-8h-13l-6 2-4 3-15 2-5 3-7-2-5-4-5-2h-7l-5 1-2-3z" fill="#FEF4BF"/>
<path transform="translate(627,347)" d="m0 0h12l5 5 3 4v4l-11-1-1-3-9-2-17-2-28-1h-36l-9 1h-21l-16 1h-12l-7 1-5-2 1-3 5-1z" fill="#55578C"/>
<path transform="translate(97,362)" d="m0 0h86l-1 13-4 6-6 5-54 1v11l10 7 11 7 3 3h3l4-6 6-4 5 1-1 5-6 7-2 2 6 4 1 2 9 5 16 11 5 4-1 2-6-1-1-3-5-2-7-4-10-6-2-5-4-2-8-5-9-4-5-4v-2l-4-1-11-8v-9l1-8 57-1 5-6 2-9 2-5h-85z" fill="#FBF3B2"/>
<path transform="translate(351,543)" d="m0 0 1 3v100l-1 4-4 1-1-6v-8l-2-1v-2h-2l1-4v-10l-2-14v-8l4-8 1-4 1-16-1-20 2-3h2z" fill="#38130A"/>
<path transform="translate(606,391)" d="m0 0h12l12 2 4 2 8-1 1-1h6l8 4 5 4h6l5 5v2h-9l-2 4-2 3-4-1-3-2-3-5-1-3-9-3-10-1v-2l-6 2-5-1-9-1-2 4-4 3h-2l-2 5-3 1-2-2-1-16h1v7l5-1 4-7z" fill="#FEF6BD"/>
<path transform="translate(672,445)" d="m0 0 2 1 1 3 1 53v32l5-1-1-9v-7l4-2 2-4 5-1 2-2 6-1v2l3 1 2 5 1 6-6 8-3 1-1 4h5v1h-26l-1-59z" fill="#DC8944"/>
<path transform="translate(451,482)" d="m0 0 4 2 6 1 1-3 1 15v14h-2v2h-3l-1 5-5-1-3-1-2-3-5-2-9-2 1-5 7-8 3-4h2l2-5h2z" fill="#472D29"/>
<path transform="translate(384,540)" d="m0 0h34v44h-2v-7l-6-2v-11l1-11-4 2v-2h-12l-2 1v-3h-2l-2 10-2-1v-3l-2 1-1 12h-1v-29z" fill="#491D0F"/>
<path transform="translate(543,393)" d="m0 0h1l1 59v19h33l1-2 1-33h1v35l-2 14-4 3-2-7h-5l-12 4-1 2h-3l-1 2-7 2-5 1-4-2 7-1v-2h2l-1-13z" fill="#EBA360"/>
<path transform="translate(134,349)" d="m0 0h8l2 1 19 2 10 1 6 2v2l-6 2v2l-8 1h-41l-3-1h-16l1-4 7-3h6l4-1 8 2v-2h3z" fill="#41241C"/>
<path transform="translate(727,424)" d="m0 0h1l1 16 8 1 3 3 12-2 5 3 3 1 1-5h1v10l-1 12-7-1-9-5-5 1-1 2-5 1v2l-6 3-1-11z" fill="#FABE77"/>
<path transform="translate(791,421)" d="m0 0h32l-1 9-2 5 1 2h-2l-1 3-9 2-5-1-9 3-3-1z" fill="#FED28C"/>
<path transform="translate(674,362)" d="m0 0h16l10 1 9 9 1 3-2 5-6-1-3-3h-6l-9 11-2 2-5-1-1-1-1-10h-1z" fill="#FEFDDE"/>
<path transform="translate(825,352)" d="m0 0 7 6 8 8 2 1 1 3v135h-1v-122h-4v-2l-5-1-1-3h-5l-4-4v-2l-3-1-6-8h2l2-5 4-4 3 1z" fill="#5E506A"/>
<path transform="translate(462,410)" d="m0 0h1v87h-1l-1-12h-6l-2 1-2-2-2 1 1-52 2 2 3 11v3l3-1 2-3z" fill="#4C3031"/>
<path transform="translate(441,376)" d="m0 0h1v29l-10 10-5 4-1-3h-10v-2h-7l-3 1h-12v-1h11v-27h-33l-1 27h-2v-24l2-6h36l2 7 2 10 5 3 14 1 7 1v-3h4z" fill="#F5C772"/>
<path transform="translate(387,604)" d="m0 0h30v29l-1 6h-5l-2-2-2-14 1-7-4-4-7 1-2 1-2-1v23l-2-4-1-7h-3v2h-2l-1-11v-2l2-1 1-6-2-2z" fill="#38130A"/>
<path transform="translate(197,407)" d="m0 0h1l1 33 1 7 1 19v29l-3 1-1 9-3-1-1-7 2-2v-8l-5 5 1-45 3-6 1-22z" fill="#41241B"/>
<path transform="translate(753,390)" d="m0 0 4 1 4 8v17l-7-1-6 2-4 4-5 1-10-1-1-1v-16l1 2 11 1 4-1 3-7 4-8z" fill="#FFEDA2"/>
<path transform="translate(640,347)" d="m0 0 4 2 5 5h4v2h-2l2 4 2 1-2 4h-11l-3 1v5l-5-5v-3l-12-1h-115l-19 1-2 4-8 6 1-4-5-5h-2l-1-3 12-1 58-2 8-1h13l18-1 7 2 62 3-6-9z" fill="#AAA8AF"/>
<path transform="translate(97,363)" d="m0 0h85l-1 5-3 11-5 5-8-1-4-2 1-1-1-7-5-4-7-2h-22l-28-1-2-1z" fill="#FFF7A3"/>
<path transform="translate(507,361)" d="m0 0h115l10 1 2 1 2 6-3-2-2 4-4 1-10-3-1-4 1-1h-16v3h-4v-4l-4-1v12l1 3v13h-1l-1-12-9 3-2 13-2-4 2-28-92 2-2 1 1-3z" fill="#FDFDFD"/>
<path transform="translate(541,352)" d="m0 0 51 1 12 2 12 1 5 2 26 2 1-3 1 4h-22l-40-2-8-2-25 1h-9l-4 1-28 1h-23v-1l17-2 5-2z" fill="#8486A4"/>
<path transform="translate(658,220)" d="m0 0h8l-2 2 3 2-4 1 7 3 8 2 13 2v2l6 1 14 2v2h10l10 5 5 1v2l5 1 10 3 2 2-13-2-28-5v-2h-8l-2-1v-2l-4 2-7-3-11-1-13-2v-2l-2-1 1-2-4-1v-5l-6-1v-3h2z" fill="#A3A4AE"/>
<path transform="translate(232,619)" d="m0 0 3 1 1 3 7 6v3l-9 1 8 5 4 1 1 7-1 3 7 5 10 1 1 2-11 1h-20l-3-2-1-9-1-25z" fill="#381B11"/>
<path transform="translate(444,386)" d="m0 0 5 1 1 1 10 1 2 2v19l-3 3h-2v2h-2v2l-8 2-5-2-1-8h-2l3-6 1-15z" fill="#544D73"/>
<path transform="translate(712,453)" d="m0 0 4 5 1 2 3 1v6l2 10v10l4 1 6 12v3h2l1 6-8 4v-4h-2v-2l-3-1v-2h-2l-1-7-1-3h-2l-3-5v-4h-2v-30z" fill="#3D292A"/>
<path transform="translate(526,641)" d="m0 0h19l1 3 2 2-1 7h-4v2l-5 2h-34l4-1v-2l3-2-1-2 3-1-4-1-9 1 1-2 12-2 1-3z" fill="#38130A"/>
<path transform="translate(471,381)" d="m0 0 5 1 5 5 18 4 1 2-2 8-3 1v2l-7 1-4-3-16 1-3-1v-15l4-5z" fill="#FEF6BD"/>
<path transform="translate(830,481)" d="m0 0 4 4 3 12v10l1 9-5 8-3-1-11 1v-1l-16-2 5-4 1-1h6l2 1v-2l6-1 2-3 1-28z" fill="#38231F"/>
<path transform="translate(427,414)" d="m0 0m-18-1 7 1v2l11-1v4l4 1 9 5 2 2 4 1 1 4h2v3h-7l-5-4-7-2-5-5h-11l-3-2h-11l-12-1-7 2-4-1v-2l-8-4v-1l37-1z" fill="#FEE19C"/>
<path transform="translate(643,220)" d="m0 0h11l-3 3-7 2 8 2-2 2-22 6-4 1h-15l-8-3-10 1v-2l21-7 20-4z" fill="#FDFDFD"/>
<path transform="translate(498,453)" d="m0 0h1v19l-5-1-4-1-3 1-9-1-8 1v2l-5 1-1-8v-11l2 3 4-3h28z" fill="#F3B06A"/>
<path transform="translate(219,345)" d="m0 0h116l2 2-1 5-1 2-1 6-10 2h-55v-1l47-1 4 1-1-6-1-4h-2v-2l-34-1-4-1-59-1z" fill="#635666"/>
<path transform="translate(173,461)" d="m0 0 6 2 1 2 7 1v13l-4 2-7-1-4 2-14 2-3-3-1-10 9-6 5-1z" fill="#F3B06A"/>
<path transform="translate(763,422)" d="m0 0 2 3 4 21 3 8v-3l-1-5v-8l3 3v2l3-1 6-14 2-5 3-1v22l1 22-2 4-2-1-1-10v-5l-3 2-3 6-4 1-2-5-3-3-5-12-1-11z" fill="#442F37"/>
<path transform="translate(444,368)" d="m0 0h4v2l17 2 9 4-1 4-5 4-4 7-1 19h-1l-1-19-1-1-10-1-2-2-4-1-1 17h-1v-28z" fill="#717193"/>
<path transform="translate(680,223)" d="m0 0 8 1v-1l9 1 3 2h7l16 3 6 2v2l14 1 23 9 3 4-7 1-11-1-7-3-10-2-5-5-15-3-7-2-17-3-10-2-1-2z" fill="#5A4A68"/>
<path transform="translate(640,414)" d="m0 0 7 6 18 18v4l4 2 2 2v31l1 14-3-3-1-20-5 1 2-7-5 3h-17v-2l-5-2 1-5 3-4 10-3-3 3-8 5-1 3 9-3 7-5 1-5 2 1v3l5-1 2 1-2-5-2-9-4-2-7-8-11-11z" fill="#442F37"/>
<path transform="translate(464,388)" d="m0 0 1 4v33h9l12-1 5 2 4-1 2-5 2-3v11l-1 9-2 4-9-1-12-2-2-2h-8v-8h-2v-37z" fill="#FDCF8A"/>
<path transform="translate(590,390)" d="m0 0 2 2v15l-1 28-4 11-4 2-1 4-1-27 1-32z" fill="#4A394B"/>
<path transform="translate(157,234)" d="m0 0h10v2l-9 4-7 4-6 2-25 10-9 5-6 1-1 2 4 1-25 10-14 6-1-2 24-14 22-12 16-8 19-8z" fill="#FBFBFB"/>
<path transform="translate(544,394)" d="m0 0h1l1 8 18-5h10l5 3v15l-18 1-4-4-6-1-6-2-1-3z" fill="#FFF6BD"/>
<path transform="translate(707,406)" d="m0 0h1v15l-18 2-25-1-11 1-4-2-4-6h5l1 3 4-1 5 2 6-1v-2l12-2 4-6 7 1 10 2 5-1z" fill="#FFE5AE"/>
<path transform="translate(501,385)" d="m0 0h41l2 2-1 18h-1l-2-11-6 2-8 1-4 2-2-2-4-1h-3v-2l-8-1v3h-2l-1 15h-1l-1-12v-13z" fill="#727296"/>
<path transform="translate(253,459)" d="m0 0 27 1 1 2-42 1-3 8-1 4-3 3h-2v-2h-14l-5 3h-2v3h-2v3l-3 1-1-1v-14l7-2 8-4 7-2 9-2 5-1h12z" fill="#F2AF69"/>
<path transform="translate(83,430)" d="m0 0 4 2 13 7 3 1 4 1 44 29 2 2v14l-3 1-5-1 4-2h2l-1-10-2-3-10-4-4-1-6-4-9-4-4-2v-2l-5-2-6-4-3-3-6 1-1 2-4-1-3-7-3-2-1-3-2-2z" fill="#381B11"/>
<path transform="translate(245,391)" d="m0 0h25l4 3 1 7-2 4-2-2v-6l-5-2v4l3 3-3 8-2 1-7-1-4 1-7-5-2 4-2-3-1-11 1-3z" fill="#442F37"/>
<path transform="translate(726,363)" d="m0 0h84v2l-10 1-26 1-11 2-12 2-11 2-3 3-7 1-3-5z" fill="#FFFDDF"/>
<path transform="translate(353,312)" d="m0 0 6 2 5-1 5 5 9 14 7 12-1 2-29 1h-5-3l2-2 19-1-3-9-11-20z" fill="#A7A5AD"/>
<path transform="translate(591,407)" d="m0 0h1l1 5v59l-6 2h-2v4l2 1-6 9-2-1 1-3 1-51h1l1 16h2l1-3 3-7 1-3z" fill="#432E35"/>
<path transform="translate(708,432)" d="m0 0h1v12l-1 9-5 1-6-3-4 2-10 3-3 4h-3l-1 3-1-1-1-13-1-3-8-7-1-2 4 2 4 4 16-2 5-1 2 1h13z" fill="#F9BC76"/>
<path transform="translate(674,348)" d="m0 0h33v1l9 2 5 1 5 2 1 2 3 2 23 2v1h-34l-26-2v-2l-8-1-1-2-3-1v-2h-7l-2-2z" fill="#544D73"/>
<path transform="translate(346,282)" d="m0 0 4 2 18 11 11 6 6 3v2l4 1 12 7 5 4 7 4 10 8 1 2 3 1 7 10 1 2-4-2-8-6-6-4-10-7-5-4-3-1-2-3-7-4-5-3v-2l-5-1-7-4-9-6-9-5-7-6z" fill="#A2A3AD"/>
<path transform="translate(711,360)" d="m0 0h18l24 1 61 1v1h-88l1 6-1 17h-1l-1-10-7 1-5-2-1 20h-1l-1-21-7-8-4-4 13-1z" fill="#7E7E9A"/>
<path transform="translate(432,348)" d="m0 0h29l1 2-2 8-14 1-4 2-63 1h-20v-1l12-1 48-1v-3l11-3 7-3-5-1z" fill="#544C72"/>
<path transform="translate(594,447)" d="m0 0 7 1 10-1 2 1 16 1v12l-7-2-5-1-2 1h-9l-5 10-6 3-1-2z" fill="#F9BD77"/>
<path transform="translate(335,415)" d="m0 0 2 3 14 3 10 1 2-4h5v2h2v2l7-1 5 1 9-1 2 1v2l2 1 2 7 2 1-5 2-13-1-7-2-8-4-6-2-5-2h-7l-6-2-6-1-1-1z" fill="#FFE483"/>
<path transform="translate(375,388)" d="m0 0h24l1 9-5 9-6 2-11-1-5-8z" fill="#503F5D"/>
<path transform="translate(496,541)" d="m0 0h38v2h-2v2l-6 3-2 2-15-1-4 1-3 7-2 4-4 16-2-2v-33z" fill="#41160B"/>
<path transform="translate(272,239)" d="m0 0 10 1 11 3 17 8 10 7-2 1-14-7h-4l1 7 3 2v2l-6-2-16-7-7-3v-3h-3l-3-5 1-3z" fill="#948D97"/>
<path transform="translate(334,389)" d="m0 0h1l1 50 6 1h6l3 1 8-1 4 3 5 1 1-7 1 3-2 13-3 1-5-3-14-1-4 2-2 7-2 3h-2l-1-3-1-19z" fill="#F9BD77"/>
<path transform="translate(143,442)" d="m0 0 20 1 10 2v2l5 1 3 2 6 2-1 4-2 1-7-3v-2h-11l-9-2-5 1-1 1-8 1-3 1h-9l-8-3 1-3 12-3z" fill="#FCC776"/>
<path transform="translate(754,414)" d="m0 0 7 2v10l-1 5-1 6-3 2h-6l-6-4-3-4v-2l-5 1-1-3v-2l-1-4 10-1 5-5z" fill="#FFD990"/>
<path transform="translate(324,456)" d="m0 0 3 1 3 12v34l-2 1-1-2-3 5-3-1-1-6-2-1 1-8h-1l1-19 2-4 2-5v-6z" fill="#412827"/>
<path transform="translate(301,460)" d="m0 0h6l4 3 5 1 1-4v11l-1 3h-22l-4 4h-2l-1 4-4 2-1-16 4-1 2-4 9-2z" fill="#F2AF69"/>
<path transform="translate(240,235)" d="m0 0h2v2l10 1 12 6 5 5-8-1-19-3-11-1h-25l-26 3h-5l3-4h9l7-1v-2h6l7-1h16l15-3z" fill="#B3AFB5"/>
<path transform="translate(608,407)" d="m0 0h8l9 9 4 1v8h-13l-20 1-1-1v-6l5 1 1-5 2-5h2v-2z" fill="#FFE4AD"/>
<path transform="translate(190,449)" d="m0 0h1v48l-3 4-5-1-1 5-4 5-1 2h2l2 5 9 3-2 4h-5l-4-4-6-2-1 1-1 4-2 1-1-8 2-4 5-2 1-2-10 4h-2v3h-2v2h-4l1-6-78-1v-1h79l3 1 10-3 8-7 6-6 1-3 1-40z" fill="#44221B"/>
<path transform="translate(156,419)" d="m0 0h4l1 2 9 3 11 5v2l12 2 2-4v12l-4 8-8-6-18-12-8-5v-2l-4-1v-2h3z" fill="#3D292A"/>
<path transform="translate(762,386)" d="m0 0h1v85l-2 12-4-2-3-7-5-1-5 3-12-1-1 4 1-9 5-5h5v-2l5-1 6 2 2 1v2l5 2 1-5z" fill="#EAA25F"/>
<path transform="translate(460,518)" d="m0 0 2 1v1l64 1 9 1v1h-72v95h-1l-1-93-9 1-2 3h-2v85h-1v-91l3-2 7-1z" fill="#817173"/>
<path transform="translate(464,409)" d="m0 0 1 2h3v2l11-1 7 3h9l2-4 2-1v7l-4 8-6 2-3-2-18 1-3-1-1-7z" fill="#FFE29E"/>
<path transform="translate(656,344)" d="m0 0 164 1 11 9 9 9 1 4-7-6-12-12-3-1-99-1h-40l-26 1z" fill="#858499"/>
<path transform="translate(654,646)" d="m0 0h2l3 6v7l6-1-2 1-2 5-2 3-4 2v2l-4 1h-11l-6-2-7 1-4-4v-5h13l6 1 6-3h2l2-4 2-8z" fill="#38130A"/>
<path transform="translate(447,459)" d="m0 0h1l-1 10-9 7-8 1-7-4-2 4-5 2-1-1v-13h6l1-2 13-2 4-1 5 3h3z" fill="#EFA967"/>
<path transform="translate(505,393)" d="m0 0 8 1 3 1 6 1 1 2 6-3 10-1 2-1 1 8-2 2-6 3-20 1-5-1v-2h-7l1-8h2z" fill="#54578C"/>
<path transform="translate(301,444)" d="m0 0 7 1 4 1 4-2v11h-8l-4-1-9 3h-12l-10-2-5-3-6-1-1-3 11 1h14l7-2h4v-2z" fill="#FABE78"/>
<path transform="translate(388,420)" d="m0 0 16 1h7l3 2h11l5 5 8 3 3 3-10-1-1 2-5-2-2-2-7 1-4 2h-10l-5-2-4-8v-2l-5-1z" fill="#FFD890"/>
<path transform="translate(279,348)" d="m0 0h28l9 1v2h2l3 6-1 4h-27v-1l8-1-2-2-10-2h-8l-5-1 1-2h2l-1-3z" fill="#44323A"/>
<path transform="translate(665,439)" d="m0 0 7 6 1 2 1 29v59h25v1l-28 1-3-7 1-34 1-9 1-1-1-9v-31l-5-4z" fill="#4B251D"/>
<path transform="translate(823,459)" d="m0 0h1v50h-73l-5-3-5-6 4 2 4 4 3 1h10l7-1h22l10-2v2l5-1-2-2v-4l5-1 2 2-1 2 9-1 2-2 1-39z" fill="#DC8944"/>
<path transform="translate(550,254)" d="m0 0 1 3 1 7 4-1v2l7 1 1 7-4 5-3 3-2 4-5 5-3 5h-2l2-4 8-12-4-3-12-6-1-3-2-1 5-6z" fill="#B1AEB3"/>
<path transform="translate(348,461)" d="m0 0h12l4 4h4l1-2v14l-4-1-1-2-4-1-8 3h-9l-3 1-1 4h-3l-1-7 5-1 2-9 2-2z" fill="#EFA967"/>
<path transform="translate(633,382)" d="m0 0h5l17 10 7 3 5 5v2h-5l-8-6-5-2h-6l-5 2-6-1-6-2-10-1h-10l-3 3-3 5-3 1-2-1-1-8 6-1 1-3v2l5-2h9l14 3h7v-2l-2-1 1-2h-2z" fill="#FEFDDE"/>
<path transform="translate(180,227)" d="m0 0 4 1-8 3v3l-2 1-2 4-4 1v2l-10 3-5 2-4 1-11 4 2 2-13 1v2l3 1-19 6h-7l1-3 8-2 14-7 18-7 10-4 6-4 6-1v-2l-7 1v-2z" fill="#A2A3AD"/>
<path transform="translate(806,414)" d="m0 0h12l7 2v2l3 1 1 4 3 6 1 8 2 5 4 8 2 10-3-2-2-9-4-5-3-8-1-9-1 3-1 40-1 5h-1v-55h-30l-3-2z" fill="#442F37"/>
<path transform="translate(711,374)" d="m0 0 8 2 5-1 1 4-1 22-6 5-6-3-1-7z" fill="#544664"/>
<path transform="translate(84,390)" d="m0 0 6 2 4 4 1 6-5 9 2 8 3 7-4 2h-5l-5-4 1-15v-12z" fill="#FEF38D"/>
<path transform="translate(86,486)" d="m0 0h64l4 1-1 4-10 1h-24l-33-1z" fill="#F3C78C"/>
<path transform="translate(282,388)" d="m0 0h1l1 52 3 4v2l-9 2-8-1-1-1h-15l-5 2-10-1-2-4v-3h45z" fill="#FAC781"/>
<path transform="translate(541,401)" d="m0 0h1v9l-8 4-14 1h-11l-7-2v11h-1v-13l1-7 4-1 9 3 19-1z" fill="#544D73"/>
<path transform="translate(629,403)" d="m0 0 3 1h-2v24l-1 16-4 2-4-4v-9h2v-2h2l-2-4h-14l-7-1 2 14-6 4-3-1-1-12v-20h1l1 14 26-1 7 1z" fill="#FED28C"/>
<path transform="translate(545,350)" d="m0 0h38l28 1 22 3 4 3-1 2h7v1h-14l-11-2-2-1-16-2-10-1-49-1h-7l2-2z" fill="#6C6D93"/>
<path transform="translate(824,475)" d="m0 0h2v36h-68l-15-2 4 5v3l2 1-3 1-6-4-4-6 1-4 3 1-2-4-3-3v-2l-4-2v-3l-3-1-1-3 4 2 17 17 3 1 73 1z" fill="#49241C"/>
<path transform="translate(664,376)" d="m0 0 7 3v16l-1 6-8-5-14-14-1-4h4l5-1z" fill="#6F7094"/>
<path transform="translate(708,463)" d="m0 0h1v12l-4 4-3-1h-14l-6 3h-6l-1-9 1 3 5-3 1-4 10-2 16 1z" fill="#EFA967"/>
<path transform="translate(789,420)" d="m0 0h1l1 46v21l-28-1-1-2 1-9 4 3 8 1h5l5-1 1 1 2-13-1-30 1-14z" fill="#4C251D"/>
<path transform="translate(823,373)" d="m0 0h1l1 12-1 1h-61v-1l33-2 2-6 2-2h13l9 2z" fill="#FFECA1"/>
<path transform="translate(446,429)" d="m0 0 4 2-1 13-1 7-5 2-4-3-7-1-4 2-1 2-9 1v-2l-3-1v-13l-44-1v-1h43l3 2 3 8 4 1 8-4 8-3 8 1-2-6h3v-3h-2z" fill="#FABE78"/>
<path transform="translate(352,369)" d="m0 0v3l-6 6 1 6 2 4 5 2h13l-1 3-16-1-2 1-1 7-5 7-5-1-1-1-1-19z" fill="#FFF7A4"/>
<path transform="translate(276,592)" d="m0 0 10 1 12 8 9 7 4 5v7l-3 2-7-1 2-1v-2l-4-2-4-6-3-2v-2h-2l-5-5-8-7z" fill="#39140C"/>
<path transform="translate(536,345)" d="m0 0h26v1h13l3-1h61l3 4-1 2-2-4-12 1h-151v-1l60-1z" fill="#8688A5"/>
<path transform="translate(411,332)" d="m0 0 10 3 6 4 6 5h24l4 4h-43l-46-1v-1l12-1v-3l10 2h25l2-1-3-4v-2l-4-1-3-2z" fill="#7D7E9C"/>
<path transform="translate(541,410)" d="m0 0h1v5l-7 7-9 2h-11l-7-3-5-2-1 2v-8h6l1 1h11l14-1z" fill="#544664"/>
<path transform="translate(579,262)" d="m0 0 4 2-2 5-3 5-1 2h-3l-2 4-8 7-4 4-4 1-3-5v-2l2-1 3-6 7-6 3-4 5-2z" fill="#544664"/>
<path transform="translate(334,387)" d="m0 0 1 2v51l1 34-1 34 29-1h61l3-2-2 4h-92l-1-29v-92z" fill="#DC8944"/>
<path transform="translate(283,541)" d="m0 0h43l-5 5-8 2-13 1-3 1-2 2-10-2-3-1v-7z" fill="#38130A"/>
<path transform="translate(659,367)" d="m0 0h10l3 4 1 16v16l-5-1-3-4 4 2 1-5v-16l-6-2-12 1-2 2-5-2-2-4 4-4 5-1h7z" fill="#8486A4"/>
<path transform="translate(724,386)" d="m0 0h1l1 50v12l-1 30 1 10-4-1-2-18-1-5h2l-1-23 1-12 2-8z" fill="#4B3031"/>
<path transform="translate(546,531)" d="m0 0h2l2 7-2 21-3 1-3-2-7 2h-12v-2l9-4-1-3-2-2 11-2 2-2 1-4h-6v-1h6v-7z" fill="#42211B"/>
<path transform="translate(212,370)" d="m0 0h3l-1 7-11 10-1 2-1 77h-1l-1-21-1-5v-48l1-7 3-4 1-4 4-1 2-4z" fill="#4B251D"/>
<path transform="translate(838,491)" d="m0 0h2l2 3v32l-4 2h-96v-1l89-1 4-6 2-5-1-13 1-10z" fill="#493031"/>
<path transform="translate(631,405)" d="m0 0 4 2 1 3 4 2 2 5 6 6v2l2 1-2 3-1 5-3 1-5-2v-2h-2v-2h-2l-1-4-3 1z" fill="#503E58"/>
<path transform="translate(471,509)" d="m0 0h83v1h-5v3l-4-1-1-1h-10l-2 2-11 2-16-1h-27l-2-2-5-2z" fill="#4C2620"/>
<path transform="translate(617,469)" d="m0 0h8l4 2v13l-1-2-3-1-2-3-14 1-4-1-3 1-3 4-4 1-1-3v-8l2 1 10-3 8-1z" fill="#EFA967"/>
<path transform="translate(193,487)" d="m0 0h2l1 2v6l-2 2v9l-2 9-2 4-9-1-2-3v-3h-2l2-5 3-3 1-4 5 1 2-4 1-7z" fill="#41241B"/>
<path transform="translate(791,424)" d="m0 0h1l1 19 7-1 6-2 4 1 8-2 2-3-1-2 3-9h1l-1 14-3 8-5 2h-10l-4 3h-2v2l-5-1-2-4z" fill="#FABE78"/>
<path transform="translate(595,245)" d="m0 0 9 1v1l6 2 3-1 1 7-17 9-1-3 1-4-2-3-9-2v-3l-5-1-4-2h16z" fill="#78788F"/>
<path transform="translate(231,219)" d="m0 0h13v2l11 2 8 3 18 8 19 9 4 4-6-1-7-3v-2l-5-1-11-3-10-3-8-4v-2h-2v-2h-10l-9-2z" fill="#B1ADB3"/>
<path transform="translate(541,517)" d="m0 0 4 1 2 2 4 1v-2l6 3v105h-1l-1-88-1-11-7 3-4 2v7h-1l-1-10-5-6 4 1v-2l2-1-2-4z" fill="#472620"/>
<path transform="translate(492,540)" d="m0 0h44v1l-42 1v79l20-1 1-49h1v51h-23l-1-1z" fill="#95705C"/>
<path transform="translate(483,370)" d="m0 0 3 1 3 6 10 2-3 4 3 3v5l-8-1-12-3-3-3v-2l-4-2 6-4h3z" fill="#FEFDDE"/>
<path transform="translate(711,396)" d="m0 0h1v7l7 2 4-4h1v22l-2 5-3-1v-2l-7-2-1-7z" fill="#4A384B"/>
<path transform="translate(579,401)" d="m0 0h1v15l-1 6-8-1-2 6-3 2-5-1-3-4-1-9-7 1v-2l-5-1 1-4 9 1 6 4v2l5-1h13z" fill="#FFE5AE"/>
<path transform="translate(325,431)" d="m0 0 1 4 2 3 3 16v20h-1l-4-17h-2v6l-2 5-1 14h-1v-41l1-5h2z" fill="#472E2B"/>
<path transform="translate(324,361)" d="m0 0h5l-2 2-2-1v2h-2l4 11 9 3 6 1-5 4-8 7-4 1-4-3-1-9v-13l-1-4z" fill="#513E4D"/>
<path transform="translate(461,398)" d="m0 0h1v12l-3 3h-2v2h-2v2l-8 2-5-2-1-8h-2l2-4 3-3 4 1 1 3 5-1 5-3z" fill="#534563"/>
<path transform="translate(300,251)" d="m0 0 6 1 12 6 5 2 13 12 12 12-1 2-20-20-14-7 1 5 1 3h2v2h2l2 6-7-4-10-7v-3l-4-2-1-7z" fill="#6A5C78"/>
<path transform="translate(587,540)" d="m0 0h33l-4 2-3 6-4-1h-9l-5 1-5-2-1 3-1 35 34-1v2h-35z" fill="#613A2E"/>
<path transform="translate(579,449)" d="m0 0h1v17l-28-1-3-2v-5h2v-3l6-2 5 2 3 3h9l5 1z" fill="#F4B56C"/>
<path transform="translate(240,387)" d="m0 0h40l1 1v5h-2v-4l-8 2-11 1h-15l-3 1-1 31-1 14h-1v-49z" fill="#4B2E2D"/>
<path transform="translate(765,256)" d="m0 0 11 1 6 3h9l6 1 1-2 18 10 14 9 2 3-5-1-26-11-20-7-16-5z" fill="#9B959F"/>
<path transform="translate(791,421)" d="m0 0h32l-1 6-3 2-11 1-9 3-8-9z" fill="#FED890"/>
<path transform="translate(97,362)" d="m0 0h86l-1 13-4 6-6 5-54 1-1 11-2-3 1-11 57-1 5-6 2-9 2-5h-85z" fill="#DD9D5F"/>
<path transform="translate(494,598)" d="m0 0h1l1 9 5 5h6l2-6 4-1 2-3v18l-1 1h-20z" fill="#38130A"/>
<path transform="translate(561,508)" d="m0 0 2 1v2l7 2h12l8 1 3-1 3 1v-3l-3-1v-1h27l-2 1-1 3-9 1-4 1-15 2-20-1-17 2-2-2z" fill="#402828"/>
<path transform="translate(89,345)" d="m0 0h109l2 2v11l-1-4-4-1-1-3-4 1-1-3h-38v-2h-62z" fill="#705F65"/>
<path transform="translate(276,467)" d="m0 0 4 2 2 3-1 29-2 6-5-2-1-5v-15l2-5v-12z" fill="#391B12"/>
<path transform="translate(507,431)" d="m0 0 2 1 26-1-1 5h-2l-2 5-3 3-8 1-3-1-1-2-6-3z" fill="#513E4D"/>
<path transform="translate(198,444)" d="m0 0 2 1 1 21v29l-3 1-1 9-3-1-1-7 2-2v-18l1-21 1-4-1-3z" fill="#391A10"/>
<path transform="translate(541,443)" d="m0 0h1v23l-4-1-13-2-6-1-1-3 6-5h6l6-3 4-5z" fill="#44333B"/>
<path transform="translate(438,408)" d="m0 0 3 1 2 8 6 1 6-1v-2h2v-2l4-1 1-2-2 9-4 3-12 1-2-1v-2h-4v2l3 1v2l5 1-1 2-4-1-6-4-7-4 2-4z" fill="#503F5D"/>
<path transform="translate(737,234)" d="m0 0 9 1 20 8 3 4-7 1-11-1-7-3-10-2-3-4 6-1z" fill="#75768F"/>
<path transform="translate(368,392)" d="m0 0h1v22h25v1l-24 1 7 4-4 2h-3v-2h-2v-2l-6 2-1 2h-10l-14-3-2-4v-6h1l2 7 9 1 4 1 5-3 7-1 2-4 2-6z" fill="#F4D79B"/>
<path transform="translate(345,361)" d="m0 0h11l2 1-2 4-9 9h-3v-2h-5l-4-1-6-2 4-6z" fill="#554663"/>
<path transform="translate(633,439)" d="m0 0 3 3 2 4 5 4-2 4-3 7-3 1-2-1 1 10h-2l-1 28h-1v-50l1-8z" fill="#462F35"/>
<path transform="translate(95,437)" d="m0 0 5 2 3 1 4 1 44 29 2 2v14l-3 1-5-1 4-2h2l-1-10-2-3-10-4-4-3v-2l-4-1-9-6-3-1v-2l-4-1-12-8-5-3z" fill="#42180D"/>
<path transform="translate(316,430)" d="m0 0h1v14l-6 3-5-2h-5l-2 1-2-1v2l-9 2-2 1h-16l-16-2v-3h15l5 2 8-1 11-3 8-1 1-1 13-1z" fill="#FDC877"/>
<path transform="translate(316,444)" d="m0 0h1v16l-1 4h-5l-4-3-13 1-6 2-2 4h-3l-3-8h8v-2l8-1 4-3 5-1 11 2z" fill="#F4B66C"/>
<path transform="translate(727,450)" d="m0 0 1 4 8-1 2-1 10-1 4 1v2l5 1v2h4v6l-7-1-9-5-5 1-1 2-5 1v2l-6 3z" fill="#F4B66D"/>
<path transform="translate(674,427)" d="m0 0 7 2 1 7h11l5 2h7l1-3h2v6l-14 1-2-1-17 3-3-1 3-2-4-10z" fill="#FDCA87"/>
<path transform="translate(335,420)" d="m0 0 11 2 4 2-1 9-3 1-2 4-2 3-6-1-1-1z" fill="#FFD47D"/>
<path transform="translate(377,347)" d="m0 0h41l20 2-1 2-7 3-11 2v3l-6 1h-12v-1l7-1v-2l4-4h2l1-3-38-1z" fill="#564765"/>
<path transform="translate(464,441)" d="m0 0h1v5l4 1 13 4h12l3-2 1-7h1v11l-3 3h-26l-5 3-1-4z" fill="#FABE77"/>
<path transform="translate(103,467)" d="m0 0 1 2h7v2h-15l-14 1 1 5h-3l-1 5-4 3-2-4-1-3-1 4-8 5-5 4 2-4 16-16 5-3z" fill="#43261D"/>
<path transform="translate(474,516)" d="m0 0h32l15 1 2 1v2l-5 1h-50l-2-2z" fill="#38140B"/>
<path transform="translate(751,406)" d="m0 0 5 2 5 1v7l-7-1-6 2-4 4-5 1-10-1v-3l5 1 4-5 2-3z" fill="#FFE29E"/>
<path transform="translate(239,385)" d="m0 0h42l2 1-1 54h-1l-1-52-40-1-1 53-2-3v-18l1-33z" fill="#DD8A45"/>
<path transform="translate(629,237)" d="m0 0h13l2 2v3l-10 7-9 2v-2l-2-1 3-2v-4l-14-1 4-2z" fill="#A2A3AD"/>
<path transform="translate(588,378)" d="m0 0h4l1 2v32h-1l-1-20h-4l-4 1-1 32h-1l-1-18v-13l2-13z" fill="#A09DA6"/>
<path transform="translate(721,488)" d="m0 0h5l6 12v3h2l1 6-8 4v-4h-2v-2l-3-1v-2h-2z" fill="#412828"/>
<path transform="translate(708,444)" d="m0 0h1v12l-2 6-5-1-4-3v-2h-8l-2 4-6 5-6 1-1-4 2-2h3l2-4 8-3 5-3 5 2 8 1z" fill="#F3B56C"/>
<path transform="translate(581,432)" d="m0 0h1l1 16h2l1-3 3-7h2l-2 15h-2v11l5 3v3l-3 1h-8z" fill="#46323A"/>
<path transform="translate(416,417)" d="m0 0h10v2l5 1 9 5 2 2 4 1 1 4h2v3h-7l-5-4-7-2-5-5v-2l-7-1-2-1z" fill="#FFE3A2"/>
<path transform="translate(457,524)" d="m0 0h5v86h-1l-1-30v-52h-7l-2 10h-2l-1 3v-12l4-4z" fill="#4C251D"/>
<path transform="translate(827,461)" d="m0 0 3 3 1 6 3 1-1 2h-2l4 3 2 2 3 9-1 4-2 6-2-3-2-9-3-3h-2l-1 2-1-1-1-13 1-8z" fill="#402828"/>
<path transform="translate(549,392)" d="m0 0 25 1 5 4-1 3-4-2h-10l-18 5-1-1v-9z" fill="#FFFEDE"/>
<path transform="translate(76,502)" d="m0 0h1v5l33-1h34l26 1 3 1-6 2h-4l-1 2v-2l-83-1-3-1z" fill="#DC8944"/>
<path transform="translate(590,390)" d="m0 0 2 2v15l-3 6-4-1-2 6h-1v-25z" fill="#564D72"/>
<path transform="translate(351,543)" d="m0 0 1 3v89l-2-4-1-10 1-5h-2l-1-16h2v-51z" fill="#40160B"/>
<path transform="translate(657,434)" d="m0 0 5 3 3 9 1 5h-3l-2 2v-2h-2l-2-3-1 5-9 6-7 1 1-4 8-5 4-4h3z" fill="#44323A"/>
<path transform="translate(346,449)" d="m0 0 14 1 5 3h3l1-4v7l-1 3-3 1-5-3-14-1-2 3h-2v3l-7 1 1-4v3h2l3-10z" fill="#F3B56C"/>
<path transform="translate(238,376)" d="m0 0 9 1 1 3 3 1 13-2 5-1 6 4v2l-38 1-1-7z" fill="#FFEE8A"/>
<path transform="translate(416,434)" d="m0 0 5 1 6 2 16 1h5v3h-8l-10 4-6 3-5-2-3-8-2-2h2z" fill="#FDC986"/>
<path transform="translate(517,465)" d="m0 0h15l10 1-1 5h-29l-9-2 1-3z" fill="#514054"/>
<path transform="translate(418,430)" d="m0 0h5l5 4 9-1 9 2 2 1v2l-5 1-16-1-11-4v2h-23l1-2 8-1 10 1 1-2z" fill="#FFD38C"/>
<path transform="translate(499,487)" d="m0 0h43l2 2-13 3h-30l-2-1z" fill="#F7B873"/>
<path transform="translate(332,426)" d="m0 0h1l1 54v29l-2-2v-13l-1-10-1-30-1-11 1-13h2z" fill="#4B251D"/>
<path transform="translate(582,517)" d="m0 0h40l5 3v1h-51l-1-2z" fill="#381B11"/>
<path transform="translate(544,295)" d="m0 0 3 4 2-2 4 2 5-2-4 7-5 7-9 1-3-1 1-7z" fill="#838294"/>
<path transform="translate(355,429)" d="m0 0 5 1 4 9v2l4 1v2l-7-1-2-2-10 1-6-2 2-4 3-4h3z" fill="#FDCA87"/>
<path transform="translate(544,406)" d="m0 0h1l1 23 12-2 3 3 1 2 13-1 4-3v5l-2 1-9 1-1 1-19-1h-3l-1-7z" fill="#FFD38D"/>
<path transform="translate(464,392)" d="m0 0h1v10h11l8-1 4 3h7v-2l2-2 2-1v-6h1v10l-5 5-8 1-15-2-5 1-2-1-1-4z" fill="#FFEBB6"/>
<path transform="translate(134,349)" d="m0 0h8l2 1 19 2 10 1 6 2v2l-4 1-8-1h-12l-5-1-9-1-6-1z" fill="#41211B"/>
<path transform="translate(382,603)" d="m0 0h36v37h-1v-36l-30 1 1 5-2 4h-2l1 4-1 4-1 38h-1z" fill="#583F3E"/>
<path transform="translate(368,486)" d="m0 0h42l3 2v2h-44z" fill="#F0C891"/>
<path transform="translate(574,276)" d="m0 0h2l-1 4-13 13-3 4-7 3-3-2-3 2-1-5 3-3 4-6 5 5 5-3 8-8z" fill="#655573"/>
<path transform="translate(820,455)" d="m0 0h1v6l-5 5-8-1-8 1-2-1-1 5-1-2-2-1 6-8 5-3 6 1 7 1z" fill="#EFA967"/>
<path transform="translate(395,438)" d="m0 0h17l1 1v48h-3l-1-3-3-1 2-4 2-1v-34l-1-3-31-1v-1z" fill="#4A2620"/>
<path transform="translate(146,244)" d="m0 0h5l-4 3-4 1-1 3-4 1 2 2-13 1v2l3 1-19 6h-7l1-3 8-2 14-7 18-7z" fill="#B5AEB1"/>
<path transform="translate(239,464)" d="m0 0h42v6l-3-3h2v-2l-36 1-4-1 1 69-4 4-1-1-19-1v-1h21z" fill="#4B251E"/>
<path transform="translate(305,465)" d="m0 0 4 1v2l5 1v-2h2l1-2-1 9h-20l-8-2 2-3h2v-2z" fill="#EFA967"/>
<path transform="translate(640,347)" d="m0 0 4 2 5 5h4v2h-2l2 4 2 1-2 4h-11l-3 1v5l-5-5v-3l-20-2v-1h13l22 1-6-9z" fill="#ADAAB1"/>
<path transform="translate(570,406)" d="m0 0 9 1v8l-18 1-4-4-6-1-6-2 1-2 13 2 5 1z" fill="#FFECB7"/>
<path transform="translate(658,381)" d="m0 0 10 3 1 2v10l1 5-8-5-5-5-3-5-3-4 7 1z" fill="#595A8B"/>
<path transform="translate(787,422)" d="m0 0h1v22l1 22-2 4-2-1-1-10v-24l-1-7 2-5z" fill="#4C3132"/>
<path transform="translate(456,527)" d="m0 0 4 1-1 2h-4l-3 11-1 4 1 37h-2l-1 4-1-1v-44l1-3h2v-6l2-4z" fill="#381B11"/>
<path transform="translate(360,324)" d="m0 0 3 1 4 5 6 2 4 4 3 5v4h-12l-1-5-7-14z" fill="#FCFCFC"/>
<path transform="translate(385,557)" d="m0 0h2l3 9 1 9 3 3v2h2v3h-6l-7-4 1-21z" fill="#38130A"/>
<path transform="translate(667,421)" d="m0 0 25 1 5-1h11l-1 4-10 4h-7l-4-2-3-2-12-2h-5z" fill="#FFD890"/>
<path transform="translate(141,468)" d="m0 0 7 2 3 4v10l-8 2-7-3v-1l-8-1v-2l12-1v-2h2l1-3v5h2l1-6h-3v-2h-2z" fill="#381B11"/>
<path transform="translate(283,418)" d="m0 0 5 2 11 1h17v7l-2 5-4 1-4-4-2-5-16-2-5-1z" fill="#FFE483"/>
<path transform="translate(571,465)" d="m0 0 9 1-1 5-2 1h-20v-2h-7l-4-2v-2z" fill="#FCC885"/>
<path transform="translate(534,329)" d="m0 0h3l-5 15v1h-13l1-5 5-6z" fill="#FDFDFD"/>
<path transform="translate(232,457)" d="m0 0 3 1h4l12 2v1h-15l-6 2-12 3-8 4-4 1 4-6 6-5z" fill="#F4B66D"/>
<path transform="translate(825,383)" d="m0 0 1 3-4 3-58-1v27h-1v-29l61-1z" fill="#4B3032"/>
<path transform="translate(432,448)" d="m0 0 7 1 4 3 5-1-1 6-4 1-9-4-4 1-5 3-10-1v-6l3 1v2l4-2 5 1 1-3z" fill="#F4B66C"/>
<path transform="translate(629,403)" d="m0 0 3 1h-2v24l-1 16-4 2-4-4v-9h2v-2h2l-2-5 6-1z" fill="#FED18C"/>
<path transform="translate(668,220)" d="m0 0h10l19 2 23 5 20 6v1h-7l-4-1v-2l-10-2-21-3-5-2-3 1h-7l-15-4z" fill="#A19CA6"/>
<path transform="translate(632,404)" d="m0 0 7 1 9 2 3 2 4 9h-3l-2-2h-3l3 3v2l-4-1-8-9-5-5z" fill="#F9D48C"/>
<path transform="translate(461,348)" d="m0 0h2l-1 11-3 2-6 1h-74v-1l64-1 3-2 13-1 2-7z" fill="#6C6D93"/>
<path transform="translate(766,244)" d="m0 0 9 3 21 11 1 3-9-2-2-1v-2l-9-1-3-2-10-3-2-1v-2l5-1z" fill="#7D7C90"/>
<path transform="translate(727,488)" d="m0 0 4 2 18 18-4 1-1 1 3 4v3l2 1-3 1-6-4-4-6 1-4 3 1-2-4-3-3v-2l-4-2v-3l-3-1z" fill="#4B241C"/>
<path transform="translate(125,357)" d="m0 0h19l4 2 25 1v1l-8 1h-41l2-2-2-2z" fill="#41211B"/>
<path transform="translate(579,356)" d="m0 0 8 2 21 1v1h-95v-1l28-1 8-1h13z" fill="#A2A3AD"/>
<path transform="translate(289,598)" d="m0 0h5l12 9 5 6v7l-3 1v-2h-2l-5-6-3-7-8-6z" fill="#41160C"/>
<path transform="translate(823,373)" d="m0 0h1l1 12-1 1h-61v-1l13-1 37-1 6-1 3-1z" fill="#F0B56D"/>
<path transform="translate(532,344)" d="m0 0h93v1h-47l-1 2-1-1v1h-22v-1h-17l-3 1-2-1z" fill="#ABA8B0"/>
<path transform="translate(763,475)" d="m0 0 4 3 8 1h5l5-1 2 4-1 3-23 1-1-2z" fill="#38221F"/>
<path transform="translate(98,443)" d="m0 0 6 3v2l5 2 6 4v2l4 1 10 5 5 3 7 3v2h2v2h3v6l-2 2-3-1 1-3h-2l-1-6-5-2-20-11-11-7v-2l-5-2z" fill="#41211B"/>
<path transform="translate(726,369)" d="m0 0h1l1 33 1 18 5 1 3 6-2 5-1 1h-5l-1-1-1-8-1-21z" fill="#FBD480"/>
<path transform="translate(806,414)" d="m0 0h12l7 5v1h-31l-3-2z" fill="#442F37"/>
<path transform="translate(725,448)" d="m0 0h1l1 37 2 6 2 1 2 4 2 1v2l3 1 3 4-1 3-3-1 1 5 2 4-4-1-1-4-2-1 1-6h-2l-4-10-3-7-1-16z" fill="#44221B"/>
<path transform="translate(818,447)" d="m0 0h1v7l-7-1-1 2-4-1-11 4-1 3-3-1v-9l1 2 5 1v-2l6-4h12z" fill="#F4B66C"/>
<path transform="translate(569,247)" d="m0 0 4 1-2 1-1 4 7 3v4l-5 5-2 3-2-1v-3l-1-4h-3l-2-1-1-4 5-6z" fill="#78788E"/>
<path transform="translate(536,345)" d="m0 0h26v1l12 1v1h-98v-1l60-1z" fill="#7F81A0"/>
<path transform="translate(221,468)" d="m0 0 13 2v-2h2v6l-4 4h-2v-2h-15l-6-3 4-2 4-1z" fill="#EFAA67"/>
<path transform="translate(674,362)" d="m0 0h16l10 1-1 3-4 2h-12l-7-1-1 10h-1z" fill="#FEFEFA"/>
<path transform="translate(648,421)" d="m0 0h5l1 1 11-1v3l1 9-3 4-15-15z" fill="#FBD088"/>
<path transform="translate(726,363)" d="m0 0h43v1l-28 3-9 3-4-1-2-2z" fill="#FEFDED"/>
<path transform="translate(707,348)" d="m0 0h13v1l10 2v2h5l6 5 7 1v1h-11l-9-1-2-5-5-1-9-2-8-1z" fill="#544664"/>
<path transform="translate(711,374)" d="m0 0 8 2 5-1 1 4-1 15-4-5-2-5-5-2z" fill="#614F6F"/>
<path transform="translate(569,515)" d="m0 0 20 1-4 2-9 2v1l-21 1-2-3 2-2z" fill="#38221F"/>
<path transform="translate(641,417)" d="m0 0 7 6v2l2 1-2 3-1 5-3 1-5-2v-2h-2v-2h-2l-1-4-3 1 1-4 2-1 2 5 6-1v-5z" fill="#503D4C"/>
<path transform="translate(754,416)" d="m0 0 4 2 3 3v5l-1 5-1 6-3 1-2-6-3-8 1-5z" fill="#FFE383"/>
<path transform="translate(806,434)" d="m0 0h13l2 3h-2l-1 3-9 2-5-1-4 2h-3l1-5z" fill="#FDCA86"/>
<path transform="translate(646,415)" d="m0 0h5l1 3 4 1 6 1h17l17-1h8l4-3v5l-18 2-25-1-11 1-4-2z" fill="#FFE29D"/>
<path transform="translate(441,376)" d="m0 0h1v29l-10 10-5 4-1-3h-10l1-2 10-3 4-1 3-4h3v-3h4z" fill="#F7C681"/>
<path transform="translate(179,528)" d="m0 0h9l6 3 4 7v2l4 1 1 2v6l-7-6-14-13z" fill="#42221D"/>
<path transform="translate(670,487)" d="m0 0 2 4v45l3 1h-4l-3-7 1-34z" fill="#41211B"/>
<path transform="translate(375,388)" d="m0 0h21l-1 2h-2l-2 5 1 2-8 2-3-1v-6l-6-3z" fill="#534563"/>
<path transform="translate(590,410)" d="m0 0h1v7l-2 8h-2l-1 2-2 1-1 5-2-1 1-14 2-6z" fill="#554664"/>
<path transform="translate(593,509)" d="m0 0h27l-2 1-1 3-9 1-4 1-13 1-1-2 3-1 3 1v-3l-3-1z" fill="#432725"/>
<path transform="translate(654,646)" d="m0 0h2v7l-2 6-5 7-4 1-1 2-13-4v-1l-6-1v-1h11l6 1 6-3h2l2-4 2-8z" fill="#41160B"/>
<path transform="translate(100,510)" d="m0 0h59v3l-4 1h-8l-3-2h-14l-5 1-5-1-1 1h-6l-6-1-7-1z" fill="#40150A"/>
<path transform="translate(334,389)" d="m0 0h1l1 50 6 1h6v3l-4-1v2l-2 1-1 3h-5l-1-1-1-7z" fill="#FAC376"/>
<path transform="translate(155,405)" d="m0 0 5 1-1 5-6 7-5 2-3-3 2-6z" fill="#E59552"/>
<path transform="translate(334,378)" d="m0 0h6l2 2-5 3-8 7-4 1-3-3 1-6 10-3z" fill="#49374A"/>
<path transform="translate(761,487)" d="m0 0h29l3 2-4 2h-27z" fill="#FBD295"/>
<path transform="translate(349,289)" d="m0 0 5 5 5 10-6-2-2-1v2h-5l-8-10-2-3 4 1v2l12 3v-2l-2-1z" fill="#675775"/>
<path transform="translate(699,364)" d="m0 0 4 2 3 3v3h-9l-8-1h-14v-5l8 1h12l4-1z" fill="#FEFDEC"/>
<path transform="translate(203,224)" d="m0 0h23l-3 3-7 2-2-1-8 2h-2l-5 1-4-1h-8v-1l6-1h9z" fill="#614F6E"/>
<path transform="translate(256,574)" d="m0 0 5 2 16 11 8 5-4 2-14-7-4-4v-2l-7-4z" fill="#40180E"/>
<path transform="translate(591,407)" d="m0 0h1l1 5v54h-1l-1-7-1-24z" fill="#4B2F2F"/>
<path transform="translate(116,398)" d="m0 0 4 2 16 10 4 4 1 4-5-1-6-5v-2l-4-1-11-8z" fill="#F9EAA7"/>
<path transform="translate(712,389)" d="m0 0 6 5 5 5v3l-5 4-6-3-1-11z" fill="#503F5D"/>
<path transform="translate(156,423)" d="m0 0 9 2 7 3 3 3v2h2v3l3 1v3l-5-2-10-7-8-5z" fill="#3F2B2C"/>
<path transform="translate(119,479)" d="m0 0 19 2 1 3 4 2h-57v-1l43-1v-2l-9-1z" fill="#452723"/>
<path transform="translate(550,255)" d="m0 0 1 2 1 7 4-1v2l7 1 1 7-5 5 1-7-11-5-4-4z" fill="#9FA0AA"/>
<path transform="translate(723,401)" d="m0 0h1v22l-2 5-2-4-2-16-2-2 3-1z" fill="#503D4C"/>
<path transform="translate(319,490)" d="m0 0 1 2-4 11-9 7h-26l1-2h21l14-14z" fill="#44211A"/>
<path transform="translate(706,364)" d="m0 0 3 2 2-1 2 3v3h6l2 2-2 4-7-2-1 20h-1l-1-21-4-5z" fill="#696991"/>
<path transform="translate(102,363)" d="m0 0h79l-1 4-16-2-62-1z" fill="#FFECB6"/>
<path transform="translate(81,509)" d="m0 0h79l2 1 1 5-1 2h-4l1-6-78-1z" fill="#582D20"/>
<path transform="translate(578,494)" d="m0 0 4 1 1 4-1 7-3 3-4-1-2-1v-5h2l2-7z" fill="#4C3132"/>
<path transform="translate(734,438)" d="m0 0 13 1 9 2 5 1v6l-1-2-6-1-4-2-10 2-3-3-5-1z" fill="#FDCA87"/>
<path transform="translate(369,415)" d="m0 0h38l-4 3-5 1h-20l-9-3z" fill="#FFECB6"/>
<path transform="translate(824,420)" d="m0 0 2 2 1 8-1 40-1 5h-1z" fill="#4A3030"/>
<path transform="translate(80,381)" d="m0 0h1l1 10h1v24l-2 8h-1l-1-15v-22z" fill="#EEB264"/>
<path transform="translate(501,385)" d="m0 0h41l2 2v6h-1l-1-5h-40l-1 11h-1v-13z" fill="#AAA8AF"/>
<path transform="translate(791,421)" d="m0 0h32l-1 3-4 1-3-1-9 2h-6l-2-2-7-2z" fill="#FFE29F"/>
<path transform="translate(121,353)" d="m0 0 7 1-3 2-4 3-2 2h-14l1-4 7-3h6z" fill="#381B11"/>
<path transform="translate(457,351)" d="m0 0h4l-1 7-14 1-4 2-8-1v-1l7-1 3-3 11-3z" fill="#54578C"/>
<path transform="translate(408,387)" d="m0 0 4 4 3 10 1 1 10 1h10l1 3-5 1-2-1-14-1-6-4-2-10z" fill="#FFEEA2"/>
<path transform="translate(313,258)" d="m0 0 14 7 3 4-10-5 1 5 4 6 3 3-1 4-6-6-2-7h-2v-2h-2l-3-5z" fill="#594B68"/>
<path transform="translate(592,471)" d="m0 0h1v38h-2l-2-3v-11l1-1 1-22z" fill="#45221B"/>
<path transform="translate(657,447)" d="m0 0 2 1-1 8-6 4-6 2h-7l-1-4 4-6 10-3-3 3-8 5-1 3 9-3 7-5z" fill="#4C2F30"/>
<path transform="translate(372,386)" d="m0 0h31l2 1v27l-2-1v-18l-2-7-29 1v8h-1v-10z" fill="#4C3132"/>
<path transform="translate(765,256)" d="m0 0 11 1 6 3h9l7 3 3 2 3 1-1 3-10-3-21-7-7-2z" fill="#A6A6AF"/>
<path transform="translate(180,227)" d="m0 0 4 1-9 3-1 2-4 1-2 4-6 1v2l-7 3-4-1 10-6 6-1v-2l-7 1v-2z" fill="#B8B5BB"/>
<path transform="translate(243,626)" d="m0 0 6 3-1 11-8-2-7-5v-1h10l-1-4z" fill="#3A140B"/>
<path transform="translate(232,559)" d="m0 0 3 3 4 17 1 6-7-6-1-2z" fill="#43251F"/>
<path transform="translate(417,510)" d="m0 0 9 1 4 2 7 1-1 2h-5l-1 1h-13l-2-4v-2z" fill="#41241C"/>
<path transform="translate(580,436)" d="m0 0h1v35l-2 3h-9l-2 1h-7l-3-3 8-1h12l1-2z" fill="#EBA35D"/>
<path transform="translate(502,470)" d="m0 0h13l25 1-2 2-11 1h-19l-6-2z" fill="#44333B"/>
<path transform="translate(605,455)" d="m0 0 11 1 2-1h7l4 1v5l-7-2-5-1-2 1h-9l-3 6h-2v-8z" fill="#F4B66D"/>
<path transform="translate(657,666)" d="m0 0 3 1-4 5-9 7-4 1h-38l-1-4 2 2h33l8-3 7-5z" fill="#52302C"/>
<path transform="translate(590,546)" d="m0 0 5 1 1 2-2 4v10l-2 3-2-5-2 1v-13z" fill="#38130A"/>
<path transform="translate(633,439)" d="m0 0 3 3 2 4 5 4-2 4-5 1-4-6-1-8z" fill="#44333B"/>
<path transform="translate(656,344)" d="m0 0 56 1v1l-58 2z" fill="#8889A5"/>
<path transform="translate(655,448)" d="m0 0 2 1-1 4-9 6-7 1 1-4 8-5z" fill="#DC8944"/>
<path transform="translate(330,474)" d="m0 0h1l2 20v13l1 3-5-2-1-4 1-2v-21z" fill="#41211B"/>
<path transform="translate(791,424)" d="m0 0h1l1 19 7-1 6-2 3 2-6 2-3 3h-2v2l-3 1-2 2-2-3z" fill="#FCC575"/>
<path transform="translate(500,487)" d="m0 0h40v2l-39 1z" fill="#FFEBB5"/>
<path transform="translate(661,469)" d="m0 0 1 2-12 7-1 1-10 1-5-6 1-3v2h2v2l2-1h6v2z" fill="#442F37"/>
<path transform="translate(667,486)" d="m0 0h2l1 5v15l-1 9h-1l-1-9-2-1v-17z" fill="#412828"/>
<path transform="translate(498,453)" d="m0 0h1v13l-7-2-4-6-2-2 12-1z" fill="#F4B66D"/>
<path transform="translate(680,223)" d="m0 0 8 1v-1l9 1 3 3h-2v2l8 1v1l-13-1-6-2-7-1-1-2z" fill="#614F6E"/>
<path transform="translate(289,541)" d="m0 0h37l-2 2-23 2-12-3z" fill="#41160B"/>
<path transform="translate(715,228)" d="m0 0 8 1 6 2v2l8 1v4h-7l-5-2-6-1v-2l3-1-7-3z" fill="#665773"/>
<path transform="translate(92,265)" d="m0 0m-2 1 5 1-5 5-21 9-1-2z" fill="#FDFDFC"/>
<path transform="translate(57,524)" d="m0 0 5 2 74 1v1h-76l-3-2z" fill="#513330"/>
<path transform="translate(590,390)" d="m0 0 2 2v8l-1 2h-2l-1 2h-2l2-9-4 1-1 11h-1v-14z" fill="#6C6D92"/>
<path transform="translate(232,619)" d="m0 0 3 1 1 3 5 5 1 3-5-1-7-2-2-1v-5z" fill="#DD8B46"/>
<path transform="translate(233,547)" d="m0 0 3 1 2 4v7h-1l-2-6h-4v2h-18v-1l9-1 2-2 7-3z" fill="#462824"/>
<path transform="translate(620,540)" d="m0 0h1v9l-3 7-4-5-1-5 3-5z" fill="#38130A"/>
<path transform="translate(727,424)" d="m0 0h1l1 16 8 1 4 5h-7v2h-5l-2-5z" fill="#FDC877"/>
<path transform="translate(103,467)" d="m0 0 1 2h7v2h-33l3-3z" fill="#D1CCCE"/>
<path transform="translate(203,411)" d="m0 0h1l1 16 7-2 8-2 15 1 1-2v3l-9 2h-12l-5 2h-6l-1-1z" fill="#FFE483"/>
<path transform="translate(448,485)" d="m0 0h2v2l-3 3-1 2h-2l-2 4-7 8-4 2-3 3-2-1 9-10z" fill="#49251E"/>
<path transform="translate(209,386)" d="m0 0 5 3 1 5-3 11-3-1-1-4z" fill="#FFF8A5"/>
<path transform="translate(589,384)" d="m0 0 3 3 1 4v21h-1l-1-20h-4l-5 1v-6z" fill="#8887A0"/>
<path transform="translate(537,306)" d="m0 0 1 3-1 2h11l-3 6-8 2v-2l-3-1 2-9z" fill="#A2A3AC"/>
<path transform="translate(296,248)" d="m0 0 10 1 14 9-2 1-14-7h-4v5l-5-3-2-5z" fill="#767690"/>
<path transform="translate(670,446)" d="m0 0h1v31l1 14-3-3-1-17-1-5z" fill="#492F2E"/>
<path transform="translate(230,627)" d="m0 0 12 4 1-2v3h-13l1 5v19h-1l-1-9v-19z" fill="#502C27"/>
<path transform="translate(424,418)" d="m0 0 7 2 9 5 2 2 4 1 2 6-5-2v-2l-5-2-9-5-6-3z" fill="#F4EAC1"/>
<path transform="translate(501,424)" d="m0 0h1l1 30 3 2v6l-4 1v10h-1z" fill="#4C3132"/>
<path transform="translate(763,422)" d="m0 0 2 3 4 21 1 7-3-2-3-8-1-11z" fill="#432E36"/>
<path transform="translate(197,407)" d="m0 0h1v31l-3 1v-20z" fill="#41211B"/>
<path transform="translate(461,348)" d="m0 0h2l-1 11-3 2-6 1h-10l3-4 13-1 2-7z" fill="#6E6F94"/>
<path transform="translate(410,459)" d="m0 0h1v20l-4 1-3-2 1-5 4-9z" fill="#412828"/>
<path transform="translate(194,429)" d="m0 0h1v12l-4 8-5-5h3l-1-7 4-2z" fill="#412829"/>
<path transform="translate(371,384)" d="m0 0h36l2 7 2 10 4 3-4 1-3-4-2-14-1-1-34-1z" fill="#FED893"/>
<path transform="translate(245,409)" d="m0 0h1l1 11 2 7h6l2-2 4 1-6 5-7-2-4-2z" fill="#442F37"/>
<path transform="translate(747,238)" d="m0 0 12 2 7 3 3 4-4 1-2-1v-2l-3 1-9-3z" fill="#685975"/>
<path transform="translate(494,611)" d="m0 0 8 4 3 5-1 1h-10z" fill="#381A10"/>
<path transform="translate(557,457)" d="m0 0 5 1 1 3 12 3v1h-18l-1-6z" fill="#F3B06A"/>
<path transform="translate(802,417)" d="m0 0h20l3 3h-31l4-2z" fill="#3D2A2B"/>
<path transform="translate(284,472)" d="m0 0h9v3l-3 3h-2l-1 4-4 2v-11z" fill="#F3B06A"/>
<path transform="translate(371,436)" d="m0 0h43l3 2 3 8 2 2h-5l-2-9-2-1-42-1z" fill="#F8BE72"/>
<path transform="translate(156,419)" d="m0 0h4l1 2 9 3 6 3 1 3-6-2-2 1v-2l-10-3-6-1v-2h3z" fill="#412828"/>
<path transform="translate(266,378)" d="m0 0 4 1 5 4h-24l3-3 10-1z" fill="#FFF68F"/>
<path transform="translate(226,363)" d="m0 0 3 1-12 13-13 13v-3l15-16z" fill="#F6D089"/>
<path transform="translate(736,505)" d="m0 0 5 2 6 7v3l2 1-3 1-6-4-4-6z" fill="#472E2B"/>
<path transform="translate(301,437)" d="m0 0h4v2l4 1-2 2h-5l-1 1-13 1 3-3h3v-2z" fill="#FDCA87"/>
<path transform="translate(797,376)" d="m0 0 2 1-3 6-3 1h-29l2-2 26-1 3-1z" fill="#FFECB7"/>
<path transform="translate(236,446)" d="m0 0 18 1 4 2-10 2-5 2-2 1v-2h-3v-4h-2z" fill="#FCC577"/>
<path transform="translate(179,355)" d="m0 0 7 2-2 5h-19v-1h8v-2l6-2z" fill="#422928"/>
<path transform="translate(146,244)" d="m0 0h5l-4 3-4 1-1 3-4 1 2 2-8 1-3-3 8-4z" fill="#AFABB1"/>
<path transform="translate(737,234)" d="m0 0 9 1 10 4-3 1h-3l-4 1-9-2z" fill="#7C7188"/>
<path transform="translate(448,596)" d="m0 0h1l1 11 4 12-1 5-3-1-2-8z" fill="#38130A"/>
<path transform="translate(498,417)" d="m0 0h1v11l-3 6-3-1-1-4-2-1 3-3h2l2-5z" fill="#FFD890"/>
<path transform="translate(572,435)" d="m0 0 5 2 1 2-10 3h-5l-1-3 5-3z" fill="#FABE77"/>
<path transform="translate(614,422)" d="m0 0h15v3h-31l4-2h7z" fill="#FFE29E"/>
<path transform="translate(344,283)" d="m0 0 5 5 4 9-5-1-6-2-2-1 1-3h6l-3-5z" fill="#554665"/>
<path transform="translate(303,605)" d="m0 0 7 6 1 2v7h-3l1-1-4-4-3-7z" fill="#78452C"/>
<path transform="translate(578,487)" d="m0 0 1 2-9 11-5 5-6 2 3-5 5-5z" fill="#45231D"/>
<path transform="translate(253,459)" d="m0 0 27 1 1 2h-31z" fill="#F3B06A"/>
<path transform="translate(335,409)" d="m0 0h1l2 7 9 1 6 3h8v2h-10l-14-3-2-4z" fill="#FFDD97"/>
<path transform="translate(632,404)" d="m0 0 7 1 9 2 3 2v2l-15-1z" fill="#FBDBA2"/>
<path transform="translate(407,385)" d="m0 0 4 1 2 2 3 11 3 2h12l3 2-11 1-7-1-3-4-3-10z" fill="#FFEAB4"/>
<path transform="translate(581,236)" d="m0 0 3 1h11l6 3 11 1v1l-5 1h-7l-6-2-5-2h-9z" fill="#A2A3AD"/>
<path transform="translate(457,524)" d="m0 0 3 1-1 3h-6l-2 10h-2l-1 3v-12l4-4z" fill="#40201A"/>
<path transform="translate(838,516)" d="m0 0 1 3v2h2l1-2v7l-1 1h-7l-3-2 4-5z" fill="#412828"/>
<path transform="translate(192,467)" d="m0 0h1l1 8v10l-3 7h-1v-10l1-14z" fill="#381B11"/>
<path transform="translate(284,442)" d="m0 0 3 2v2l-9 2-8-1-3-3z" fill="#FDCA87"/>
<path transform="translate(822,425)" d="m0 0h1l-1 14-3 5-6 1v-2l-4-1 9-3 2-3-1-2z" fill="#FDC978"/>
<path transform="translate(415,467)" d="m0 0 2 1v2l6-1-1 7-4 3-3-1z" fill="#F3B06A"/>
<path transform="translate(464,455)" d="m0 0 2 3 4-3h11l1 2-10 1-3 4-1 2-4 2z" fill="#F3B56C"/>
<path transform="translate(784,453)" d="m0 0h4l1 13-2 4-2-1-1-10z" fill="#472E2B"/>
<path transform="translate(816,270)" d="m0 0 10 5 6 5-3 1-16-7 1-2h2z" fill="#CAC7CB"/>
<path transform="translate(409,574)" d="m0 0 7 3v7l-8-1-1-6z" fill="#38130A"/>
<path transform="translate(168,244)" d="m0 0 5 1 1 3-15 3-4-1 4-4z" fill="#A9A9B1"/>
<path transform="translate(703,224)" d="m0 0 9 1 25 7 3 2h-7l-4-1v-2l-10-2-12-2v-2z" fill="#B9B6BD"/>
<path transform="translate(419,517)" d="m0 0h11l6 2v2h-19z" fill="#38150C"/>
<path transform="translate(238,443)" d="m0 0 13 1h12v1l-9 1-5 2-10-1z" fill="#FDCA87"/>
<path transform="translate(374,418)" d="m0 0h23v1l-16 4-4-1v-2l-3-1z" fill="#FFE59E"/>
<path transform="translate(434,414)" d="m0 0 3 4 1 4 3 1v2l5 1-1 2-4-1-6-4-5-3 2-1 1-4z" fill="#544457"/>
<path transform="translate(750,391)" d="m0 0v3l-5 12-7 2-2-2 6-3 1-6 5-2z" fill="#FFE5AE"/>
<path transform="translate(555,541)" d="m0 0h1v36h-1l-1-17-2-7 2-2z" fill="#41160B"/>
<path transform="translate(672,379)" d="m0 0 1 4v20l-5-1-3-4 4 2 1-5 1-14z" fill="#958A91"/>
<path transform="translate(199,528)" d="m0 0h2l2 7 2 3v5l-7-3-1-7z" fill="#402019"/>
<path transform="translate(371,460)" d="m0 0 2 3 1 7-2 10 4 2v3h-5z" fill="#3E2421"/>
<path transform="translate(368,486)" d="m0 0 26 1v2h-26z" fill="#FEE6AF"/>
<path transform="translate(315,414)" d="m0 0h1v5l-3 2-5 1h-11l-9-1v-1l8-1h18z" fill="#FFE09B"/>
<path transform="translate(399,387)" d="m0 0 3 1 2 7v8l-3-2h-3l1-10z" fill="#503D4C"/>
<path transform="translate(544,297)" d="m0 0 3 2 2-2 4 2 5-2-3 5-6 3-2-4-5 2 1-4z" fill="#6F7092"/>
<path transform="translate(542,471)" d="m0 0 2 3v12h-2v-2h-5v-3l4-5z" fill="#452825"/>
<path transform="translate(788,466)" d="m0 0h1v17l-2 3h-23v-1l21-1 2-9z" fill="#442622"/>
<path transform="translate(640,414)" d="m0 0 7 6 18 18-1 3-5-5-9-10-10-10z" fill="#4C2F30"/>
<path transform="translate(281,385)" d="m0 0 6 1 2 3-1 4-2 1-2 8h-1v-16z" fill="#FEE899"/>
<path transform="translate(362,525)" d="m0 0 3 2h-2v5l-5 5h-3l1-6z" fill="#38130A"/>
<path transform="translate(412,487)" d="m0 0h4v3l-2 1h-44v-1h43z" fill="#F2B06A"/>
<path transform="translate(761,441)" d="m0 0h1v10h-5l-3-3 1-2-7-1v-2l4-1 5 3 3 1z" fill="#FCC677"/>
<path transform="translate(728,363)" d="m0 0h41v1l-33 1-8 1z" fill="#FDFDFC"/>
<path transform="translate(820,346)" d="m0 0 4 2 12 11 5 6-1 2-20-20z" fill="#FDFDFC"/>
<path transform="translate(139,414)" d="m0 0 6 2 3 3 9 5-1 3-4-2-8-5-5-5z" fill="#F1EBC8"/>
<path transform="translate(569,247)" d="m0 0 4 1-2 1-1 4 7 3v4l-3 1-2-4-6-2v-6z" fill="#6C6D93"/>
<path transform="translate(400,667)" d="m0 0h1v8l-2 5h-9l5-4 2-4 2-1z" fill="#512F2B"/>
<path transform="translate(75,472)" d="m0 0v3l-3 7-8 4-6 5 2-4z" fill="#4A2821"/>
<path transform="translate(136,467)" d="m0 0 5 1v2h2v2h3v6l-2 2-3-1 1-3h-2l-1-6-3-1z" fill="#41211B"/>
<path transform="translate(354,440)" d="m0 0h5l4 3 5 1-1 3-8-1-2-2-6-2z" fill="#FDC877"/>
<path transform="translate(77,403)" d="m0 0h1l1 22-4-4-1-8z" fill="#391A0F"/>
<path transform="translate(540,523)" d="m0 0h3l3 9-3 1v7h-1l-1-10-5-6 4 1z" fill="#422721"/>
<path transform="translate(381,510)" d="m0 0 3 1 1 2 13 1 3 2h-24l4-2z" fill="#38130A"/>
<path transform="translate(453,344)" d="m0 0 6 1 1 2h-23l-2-2z" fill="#898BA5"/>
<path transform="translate(700,231)" d="m0 0 13 1 6 2 10 2v1h-9l-9-2-10-2z" fill="#73748F"/>
<path transform="translate(784,469)" d="m0 0 4 1-1 10-4-1v-2l-4-2 4-4z" fill="#412828"/>
<path transform="translate(727,450)" d="m0 0 1 4h7l-1 3h-2l-1 5-2 4h-1z" fill="#F9BB6B"/>
<path transform="translate(616,424)" d="m0 0 10 1v1l-5 1h-26l1-2z" fill="#FED58E"/>
<path transform="translate(381,348)" d="m0 0 11 1v1l-12 2h-8v-3z" fill="#4C3A4B"/>
<path transform="translate(411,458)" d="m0 0h1v28l-6-3 2-4 2-1z" fill="#3D211D"/>
<path transform="translate(367,519)" d="m0 0h3v2h3l-2 4-5 4-1 2h-2v-4h2l1-4 2-1z" fill="#3A1A12"/>
<path transform="translate(544,406)" d="m0 0h1l1 23 8-1v2h-2v2l-6 1-2-5z" fill="#FDCF89"/>
<path transform="translate(304,246)" d="m0 0 11 6 8 6-1 2-16-10-4-3z" fill="#ABA9B0"/>
<path transform="translate(652,644)" d="m0 0h1v7l-3 6-7 5-2-1 9-10z" fill="#E2944F"/>
<path transform="translate(417,510)" d="m0 0h5l1 4 2 3h-8l-2-4v-2z" fill="#402019"/>
<path transform="translate(545,471)" d="m0 0h12l1 2-7 1v2h-3v2h-2z" fill="#F3B06A"/>
<path transform="translate(372,380)" d="m0 0 21 2 5 1v1h-18l-8-2z" fill="#FFE8B2"/>
<path transform="translate(353,312)" d="m0 0 6 2 5-1 4 4-2 1-2-1v2l-5-1-6-4z" fill="#A2A3AD"/>
<path transform="translate(459,621)" d="m0 0 6 1 2 4-5 2-4-1v-5z" fill="#39140B"/>
<path transform="translate(119,395)" d="m0 0h5l1 5 4 4-6-1-5-4z" fill="#3E2119"/>
<path transform="translate(588,378)" d="m0 0h4l1 2v11h-1l-1-8-3-1-3 2h-3l1-4z" fill="#AFABB1"/>
<path transform="translate(810,266)" d="m0 0 6 3v3l-6 1-7-3 1-3 6 1z" fill="#B1AEB5"/>
<path transform="translate(353,675)" d="m0 0 9 1 6 2v2h-9l-6-4z" fill="#4F2A24"/>
<path transform="translate(259,602)" d="m0 0 6 2-3 2-15 1 4-4z" fill="#9C949B"/>
<path transform="translate(581,466)" d="m0 0 11 1v3l-3 1h-8z" fill="#5A4A62"/>
<path transform="translate(838,435)" d="m0 0 4 4v13l-2-2-3-10z" fill="#442F37"/>
<path transform="translate(589,418)" d="m0 0 1 4-1 3h-2l-1 2-2 1-1 5h-1l1-12 5-1z" fill="#503F5D"/>
<path transform="translate(711,374)" d="m0 0 6 2 2 1-1 7-5-2z" fill="#544D74"/>
<path transform="translate(541,517)" d="m0 0 4 1 2 2 4 1v-2h2l-1 5h-7v-2l-4-1-1-3z" fill="#42251C"/>
<path transform="translate(156,423)" d="m0 0 9 2 3 3-1 3-5-2-5-3z" fill="#432F30"/>
<path transform="translate(655,448)" d="m0 0 2 1-1 4-2 2-9 2 3-4h3l1-4z" fill="#E49552"/>
<path transform="translate(221,427)" d="m0 0 7 2-1 3-7 1-3-3v-2z" fill="#FDC877"/>
<path transform="translate(581,471)" d="m0 0h1v5l3-1v2l2 1-6 9-2-1 1-3z" fill="#4C3132"/>
<path transform="translate(541,447)" d="m0 0h1v18l-3-1-1-4z" fill="#442F37"/>
<path transform="translate(384,342)" d="m0 0 10 2 18 1v1h-28z" fill="#948C96"/>
<path transform="translate(335,450)" d="m0 0 1 4 5-1-1 6-2 3h-2l-1-3z" fill="#FABC6B"/>
<path transform="translate(416,417)" d="m0 0h10l-2 2 5 3-2 1-9-2-2-1z" fill="#FFEDB6"/>
<path transform="translate(352,369)" d="m0 0v3l-12 13-5 2 6-7z" fill="#EABA7B"/>
<path transform="translate(651,356)" d="m0 0 3 1v2h13l7 1v1h-18l-5-2z" fill="#797B9C"/>
<path transform="translate(713,228)" d="m0 0 9 3v3h-8l-3-3z" fill="#5C4C6A"/>
<path transform="translate(514,602)" d="m0 0h1v18h-1v-8l-3-1v-3h-2l1-3h3z" fill="#41160B"/>
<path transform="translate(474,516)" d="m0 0 5 1-2 4h-9l-2-2z" fill="#38190F"/>
<path transform="translate(100,510)" d="m0 0h22l-3 3h-6l-6-1-7-1z" fill="#3F150A"/>
<path transform="translate(426,403)" d="m0 0h10l1 3-5 1-2-1-14-1v-1z" fill="#FFE79F"/>
<path transform="translate(444,386)" d="m0 0 4 1-1 4h-2v10l-2 2v-15z" fill="#62506F"/>
<path transform="translate(368,379)" d="m0 0 3 1-3 9-1 1h-5l4-8z" fill="#FFEBB6"/>
<path transform="translate(793,261)" d="m0 0 5 2 3 2 3 1-1 3-10-3z" fill="#A8A7AF"/>
<path transform="translate(179,528)" d="m0 0h9l2 3v5l-4-2-4-4z" fill="#4D332D"/>
<path transform="translate(657,447)" d="m0 0 2 1-1 8-6 4-2-1 2-4 4-3z" fill="#4C2E2E"/>
<path transform="translate(831,379)" d="m0 0 7 2v2h4l-1 4-3-2h-7z" fill="#513E4D"/>
<path transform="translate(540,487)" d="m0 0 4 2-2 1h-32v-1h30z" fill="#FED38F"/>
<path transform="translate(148,470)" d="m0 0 4 1 1 1v14l-3 1-5-1 4-2h2l-1-10z" fill="#441D14"/>
<path transform="translate(591,400)" d="m0 0h1v7l-3 6h-1l-1-10 4-1z" fill="#62506F"/>
<path transform="translate(372,389)" d="m0 0h3l-1 11 1 2h-3v6h-1v-11z" fill="#513E4D"/>
<path transform="translate(266,387)" d="m0 0h14l1 1v5h-2v-4l-8 1-5-2z" fill="#4B241C"/>
<path transform="translate(221,220)" d="m0 0h9l-4 3h-12l-5-1v-1z" fill="#B0AEB5"/>
<path transform="translate(668,220)" d="m0 0h10l12 1v1l-5 1h-10l-7-2z" fill="#B1B0B7"/>
<path transform="translate(467,644)" d="m0 0 3 3 1 3-4 2-4-4v-3z" fill="#421910"/>
<path transform="translate(587,472)" d="m0 0h4v13h-1l-1-7-4-1v-4z" fill="#3E2929"/>
<path transform="translate(446,429)" d="m0 0 4 2-1 13-9-3 2-1 6 1-2-6h3v-3h-2z" fill="#F2C07D"/>
<path transform="translate(792,425)" d="m0 0 5 4 2 4-4 1v2h-2z" fill="#FFE483"/>
<path transform="translate(155,405)" d="m0 0 5 1-1 5-5 4 4-8-7 3-4 3 2-4z" fill="#DC8944"/>
<path transform="translate(323,389)" d="m0 0 6 1-3 10-2-1z" fill="#44333B"/>
<path transform="translate(813,378)" d="m0 0 7 4v1l-12 1v-3h3v-2z" fill="#FFF68F"/>
<path transform="translate(232,623)" d="m0 0 7 2 3 4v2l-5-1-3-3 1-1-3-1z" fill="#E18F4B"/>
<path transform="translate(792,428)" d="m0 0h1v9h2l2 3v3l-4 1-1-1z" fill="#FFD47D"/>
<path transform="translate(398,415)" d="m0 0h9l-4 3-5 1-10-1v-1z" fill="#FFE5AE"/>
<path transform="translate(485,361)" d="m0 0h22v1l-19 1-2 4-2-1-1-3z" fill="#B0ACB2"/>
<path transform="translate(236,425)" d="m0 0h1l1 14-3-1-1-8-3-1 4-2z" fill="#FBC373"/>
<path transform="translate(552,636)" d="m0 0 5 1 2 4h-9l-1-2h2z" fill="#381B11"/>
<path transform="translate(236,616)" d="m0 0 1 4 2 4h3l1 4h-3l-5-5v-3l-2-1z" fill="#49231B"/>
<path transform="translate(669,518)" d="m0 0h1l2 15v3l3 1h-4l-3-7z" fill="#41241B"/>
<path transform="translate(216,374)" d="m0 0 1 2-7 8-7 6 2-4z" fill="#F7D67C"/>
<path transform="translate(800,375)" d="m0 0h13v1l-11 1-2 5-2 1-2-2z" fill="#FFF8A5"/>
<path transform="translate(484,367)" d="m0 0 2 1-5 8-7 3 2-4z" fill="#FEFDF4"/>
<path transform="translate(256,574)" d="m0 0 5 2 9 6-3 1-7-3-4-3z" fill="#411A11"/>
<path transform="translate(196,494)" d="m0 0 2 3-1 8-3-1-1-7z" fill="#381B11"/>
<path transform="translate(591,466)" d="m0 0h2v5l-6 2h-2l-1 3h-2v-5l10-1z" fill="#452F36"/>
<path transform="translate(236,446)" d="m0 0 6 3h6v2l-5 2-2 1v-2h-3v-4h-2z" fill="#FABE78"/>
<path transform="translate(424,418)" d="m0 0 7 2 5 3-4 2-7-4-2-2z" fill="#F6F3D7"/>
<path transform="translate(587,394)" d="m0 0 2 1-2 7-4 2 1-8h3z" fill="#54578C"/>
<path transform="translate(813,376)" d="m0 0 7 1 2 1v3l-5 1-4-5z" fill="#FFF2A3"/>
<path transform="translate(123,255)" d="m0 0h4v2l3 1-7 2h-7l4-2z" fill="#A3A0A9"/>
<path transform="translate(411,627)" d="m0 0h3l2 6-5 1-1-1v-5z" fill="#381B11"/>
<path transform="translate(249,542)" d="m0 0h2l-1 25h-1l-2-8 1-1z" fill="#39140C"/>
<path transform="translate(256,526)" d="m0 0h3l-2 4-6 7-1-3 3-5z" fill="#3F180F"/>
<path transform="translate(534,509)" d="m0 0h20v1h-5v3l-4-1-1-1-10-1z" fill="#4A2822"/>
<path transform="translate(437,498)" d="m0 0 2 1-4 5-4 2-3 3-2-1 6-7z" fill="#48231C"/>
<path transform="translate(832,480)" d="m0 0 3 2 1 8h2l-1 7-2-3z" fill="#3D292A"/>
<path transform="translate(324,456)" d="m0 0 3 1-1 7h-2l-1 5-2 1 2-7v-6z" fill="#3D2A2B"/>
<path transform="translate(792,451)" d="m0 0 1 2 5 1-3 6h-3z" fill="#FABC6B"/>
<path transform="translate(158,427)" d="m0 0 4 1 10 7-4 1-4-4-5-2z" fill="#F3F0D4"/>
<path transform="translate(831,359)" d="m0 0 4 2 4 5-4 2-3-3v-2z" fill="#5F526C"/>
<path transform="translate(766,244)" d="m0 0 9 3 6 3-3 1-7-1v-2h-2v-2l-3-1z" fill="#8C899D"/>
<path transform="translate(475,640)" d="m0 0h4l1 7-5-1z" fill="#38130A"/>
<path transform="translate(440,634)" d="m0 0 1 3-7 5-15-1v-1l15-1z" fill="#675254"/>
<path transform="translate(350,620)" d="m0 0h2v15l-2-4-1-9z" fill="#3E170C"/>
<path transform="translate(520,481)" d="m0 0h7l3 1v2h-12v-2z" fill="#3D2A2B"/>
<path transform="translate(316,363)" d="m0 0 1 3-1 2-5-1-6-2v-1z" fill="#FFFCDB"/>
<path transform="translate(177,363)" d="m0 0h4l-1 4-16-2v-1z" fill="#FFF5BD"/>
<path transform="translate(680,223)" d="m0 0 12 2-2 3-10-1-1-2z" fill="#645675"/>
<path transform="translate(470,648)" d="m0 0h3l2 8-2 1-5-5z" fill="#3E2118"/>
<path transform="translate(232,559)" d="m0 0 3 3v6h-1l-1 9h-1z" fill="#4F393C"/>
<path transform="translate(123,460)" d="m0 0 9 3 4 5-5-2-8-4zm13 6h2l-1 2z" fill="#40201A"/>
<path transform="translate(302,389)" d="m0 0h2l1 2 4-1 1 4-3 1-5-2z" fill="#FFF7BE"/>
<path transform="translate(407,385)" d="m0 0 4 1 2 2 2 7v4h-2l-3-10z" fill="#FFEBB6"/>
<path transform="translate(541,307)" d="m0 0 8 4-9 1-3-1 1-3z" fill="#928C99"/>
<path transform="translate(554,281)" d="m0 0h2l-1 4-5 5-3 5h-2l2-4z" fill="#95919E"/>
<path transform="translate(841,519)" d="m0 0h1v7l-1 1h-6l4-6h2z" fill="#4B3230"/>
<path transform="translate(464,418)" d="m0 0h1v7l6 1v2l-6 1-1-1z" fill="#FFD68F"/>
<path transform="translate(640,347)" d="m0 0 4 2 6 7-1 2-5-5z" fill="#FDFDFD"/>
<path transform="translate(139,249)" d="m0 0 3 2-4 1 2 2-8 1-3-3z" fill="#A2A3AD"/>
<path transform="translate(383,579)" d="m0 0 11 4v1h-11z" fill="#3A1C12"/>
<path transform="translate(804,521)" d="m0 0 17 1v1l-5 1h-9z" fill="#41211B"/>
<path transform="translate(145,511)" d="m0 0h12v3h-10l-3-2z" fill="#38140B"/>
<path transform="translate(147,471)" d="m0 0 3 1 1 2v6l-4-1v-3z" fill="#38130A"/>
<path transform="translate(177,442)" d="m0 0 6 2 1-1 4 3-1 2-6-1-1-3-3-1z" fill="#F7DFA1"/>
<path transform="translate(648,421)" d="m0 0h5l3 5-1 3-7-7z" fill="#F1B66C"/>
<path transform="translate(371,380)" d="m0 0 1 2 8 1v1l-9 1-1 5h-1l-1-6 1-2h2z" fill="#FEE59D"/>
<path transform="translate(797,376)" d="m0 0 2 1-3 6-8 1 5-4h2z" fill="#FFEAB5"/>
<path transform="translate(765,256)" d="m0 0 11 1 7 4-2 1-16-5z" fill="#B6B5BC"/>
<path transform="translate(129,254)" d="m0 0h11l-2 2-4 1h-7v-2z" fill="#98919B"/>
<path transform="translate(739,248)" d="m0 0 7 1 7 3-3 1-15-3z" fill="#ADACB4"/>
<path transform="translate(193,228)" d="m0 0h11l-1 3-8-1h-8v-1z" fill="#62506F"/>
<path transform="translate(289,598)" d="m0 0h5l4 4-1 2-5-2z" fill="#41180F"/>
<path transform="translate(583,486)" d="m0 0 3 1 2 6-3-1-1 2-3-6h2z" fill="#3D2A2B"/>
<path transform="translate(173,461)" d="m0 0 6 2 1 3-4-2-10 2 4-3z" fill="#F4B66D"/>
<path transform="translate(503,454)" d="m0 0 3 2v6l-4 1z" fill="#44333B"/>
<path transform="translate(109,443)" d="m0 0 9 5 4 4-4-1-9-6z" fill="#4C251D"/>
<path transform="translate(386,421)" d="m0 0h2l-2 4-2 2-4-2-1-3z" fill="#FFD991"/>
<path transform="translate(438,408)" d="m0 0v3l-5 5-1 3h-4l2-4z" fill="#49333C"/>
<path transform="translate(824,275)" d="m0 0 5 2 3 4-5-1-7-3z" fill="#FDFDFD"/>
<path transform="translate(568,268)" d="m0 0 2 1-7 8-4 3-2-1 5-4z" fill="#60516F"/>
<path transform="translate(178,243)" d="m0 0h6l1 3-10 1z" fill="#B1AEB4"/>
<path transform="translate(650,449)" d="m0 0 2 1-10 6-3 2 2-5z" fill="#4C3132"/>
<path transform="translate(127,252)" d="m0 0 3 1-1 2-8 1-1 3-3-1 5-4z" fill="#AFABB1"/>
</svg>
